<?xml version="1.0" encoding="UTF-8"?>
<svg width="69px" height="69px" viewBox="0 0 69 69" version="1.1" xmlns="http://www.w3.org/2000/svg" xmlns:xlink="http://www.w3.org/1999/xlink">
    <!-- Generator: Sketch 46.1 (44463) - http://www.bohemiancoding.com/sketch -->
    <title>gouwu</title>
    <desc>Created with Sketch.</desc>
    <defs>
        <circle id="path-1" cx="30.5" cy="30.5" r="30.5"></circle>
        <filter x="-8.2%" y="-8.2%" width="116.4%" height="116.4%" filterUnits="objectBoundingBox" id="filter-2">
            <feMorphology radius="0.5" operator="dilate" in="SourceAlpha" result="shadowSpreadOuter1"></feMorphology>
            <feOffset dx="0" dy="0" in="shadowSpreadOuter1" result="shadowOffsetOuter1"></feOffset>
            <feGaussianBlur stdDeviation="1.5" in="shadowOffsetOuter1" result="shadowBlurOuter1"></feGaussianBlur>
            <feComposite in="shadowBlurOuter1" in2="SourceAlpha" operator="out" result="shadowBlurOuter1"></feComposite>
            <feColorMatrix values="0 0 0 0 0   0 0 0 0 0   0 0 0 0 0  0 0 0 0.246065444 0" type="matrix" in="shadowBlurOuter1"></feColorMatrix>
        </filter>
        <filter x="-23.0%" y="-23.0%" width="145.9%" height="145.9%" filterUnits="objectBoundingBox" id="filter-3">
            <feGaussianBlur stdDeviation="10" in="SourceAlpha" result="shadowBlurInner1"></feGaussianBlur>
            <feOffset dx="0" dy="1" in="shadowBlurInner1" result="shadowOffsetInner1"></feOffset>
            <feComposite in="shadowOffsetInner1" in2="SourceAlpha" operator="arithmetic" k2="-1" k3="1" result="shadowInnerInner1"></feComposite>
            <feColorMatrix values="0 0 0 0 0   0 0 0 0 0   0 0 0 0 0  0 0 0 0.0452332428 0" type="matrix" in="shadowInnerInner1"></feColorMatrix>
        </filter>
        <circle id="path-4" cx="30.5" cy="30.5" r="30.5"></circle>
        <filter x="-8.2%" y="-8.2%" width="116.4%" height="116.4%" filterUnits="objectBoundingBox" id="filter-5">
            <feMorphology radius="0.5" operator="dilate" in="SourceAlpha" result="shadowSpreadOuter1"></feMorphology>
            <feOffset dx="0" dy="0" in="shadowSpreadOuter1" result="shadowOffsetOuter1"></feOffset>
            <feGaussianBlur stdDeviation="1.5" in="shadowOffsetOuter1" result="shadowBlurOuter1"></feGaussianBlur>
            <feComposite in="shadowBlurOuter1" in2="SourceAlpha" operator="out" result="shadowBlurOuter1"></feComposite>
            <feColorMatrix values="0 0 0 0 0   0 0 0 0 0   0 0 0 0 0  0 0 0 0.246065444 0" type="matrix" in="shadowBlurOuter1"></feColorMatrix>
        </filter>
        <filter x="-23.0%" y="-23.0%" width="145.9%" height="145.9%" filterUnits="objectBoundingBox" id="filter-6">
            <feGaussianBlur stdDeviation="10" in="SourceAlpha" result="shadowBlurInner1"></feGaussianBlur>
            <feOffset dx="0" dy="1" in="shadowBlurInner1" result="shadowOffsetInner1"></feOffset>
            <feComposite in="shadowOffsetInner1" in2="SourceAlpha" operator="arithmetic" k2="-1" k3="1" result="shadowInnerInner1"></feComposite>
            <feColorMatrix values="0 0 0 0 0   0 0 0 0 0   0 0 0 0 0  0 0 0 0.0452332428 0" type="matrix" in="shadowInnerInner1"></feColorMatrix>
        </filter>
        <path d="M42.2964263,17.5387652 C39.0523492,17.7926495 36.1326798,18.0183244 33.5374181,18.21579 C32.4372528,18.3004181 31.3441398,18.3850462 30.2580792,18.4696743 C29.1720186,18.5543024 28.1846908,18.6248258 27.2960958,18.6812445 C26.4075007,18.7376633 25.6599525,18.794082 25.0534511,18.8505007 C24.4469497,18.9069195 24.0872803,18.9351288 23.9744429,18.9351288 C23.833396,18.9633382 23.6711922,18.9844952 23.4878313,18.9985999 C23.3044704,19.0127046 23.1422666,19.0479663 23.0012197,19.104385 L22.4934511,19.2736412 L20.6316329,18.4273602 C20.7726798,18.2298947 20.941936,18.0465338 21.1394015,17.8772776 C21.2804484,17.7362308 21.4567569,17.6022363 21.6683272,17.4752941 C21.8798974,17.348352 22.09852,17.2707762 22.3241949,17.2425668 C22.4934511,17.2143575 22.944801,17.1720434 23.6782445,17.1156247 C24.411688,17.059206 25.3143878,16.9886825 26.3863437,16.9040544 C26.3863437,16.5373327 26.4216054,16.0366164 26.4921288,15.4019057 C26.5626522,14.7671949 26.7319084,14.1395365 26.9998974,13.5189305 C27.2678864,12.8983244 27.6557652,12.3482418 28.1635338,11.8686825 C28.6713024,11.3891233 29.3624318,11.1070297 30.2369222,11.0224016 C31.2524594,10.9377735 32.0775834,11.092925 32.7122941,11.4878561 C33.3470048,11.8827872 33.8406688,12.3693988 34.1932858,12.9476908 C34.5459029,13.5259828 34.7927349,14.1183795 34.9337817,14.7248809 C35.0748285,15.3313823 35.1594566,15.8038892 35.187666,16.1424016 C36.4006688,16.0577735 37.4091536,15.98725 38.2131205,15.9308313 C39.0170875,15.8744126 39.461385,15.8320985 39.5460131,15.8038892 C39.8563161,15.7756798 40.2018809,15.8320985 40.5827073,15.9731454 C40.9635338,16.1141922 41.2667845,16.2975531 41.4924594,16.523228 C41.5488781,16.5796467 41.6264539,16.6642748 41.7251867,16.7771123 C41.8239194,16.8899498 41.9155999,17.0027872 42.000228,17.1156247 C42.1130655,17.2284622 42.2117982,17.369509 42.2964263,17.5387652 L42.2964263,17.5387652 Z M30.5754346,12.5033933 C30.0394566,12.559812 29.6092638,12.7502252 29.2848561,13.074633 C28.9604484,13.3990407 28.7136164,13.7869195 28.5443602,14.2382693 C28.375104,14.6896192 28.2622666,15.1480214 28.2058478,15.6134759 C28.1494291,16.0789305 28.1212197,16.4527046 28.1212197,16.7347982 C28.9957101,16.6783795 29.8913575,16.6078561 30.8081619,16.523228 C31.7249663,16.4385999 32.6206137,16.3680765 33.495104,16.3116578 C33.4668947,16.0577735 33.4034236,15.7051564 33.3046908,15.2538065 C33.205958,14.8024567 33.0437542,14.3652115 32.8180792,13.942071 C32.5924043,13.5189305 32.2962059,13.1663134 31.9294842,12.8842197 C31.5627624,12.6021261 31.1114126,12.4751839 30.5754346,12.5033933 L30.5754346,12.5033933 Z M47.120228,43.6042197 C47.2612748,44.394082 47.2401178,45.0499498 47.0567569,45.571823 C46.873396,46.0936963 46.3585751,46.4533657 45.5122941,46.6508313 C45.2302004,46.7354594 44.6166467,46.8765062 43.6716329,47.0739718 C42.7266192,47.2714374 41.5982445,47.511217 40.286509,47.7933106 C38.9747734,48.0754043 37.5713575,48.378655 36.076261,48.7030627 C34.5811646,49.0274704 33.1495393,49.3307211 31.781385,49.6128148 C30.4132307,49.8949084 29.1861233,50.1487927 28.1000627,50.3744677 C27.0140021,50.6001426 26.2452969,50.7552941 25.793947,50.8399222 C24.7502004,51.0655971 23.9814952,50.9950737 23.4878313,50.628352 C22.9941674,50.2616302 22.7473354,49.7115476 22.7473354,48.978104 L22.7473354,22.9972776 C22.7473354,22.2920434 22.8954346,21.7208038 23.1916329,21.2835586 C23.4878313,20.8463134 23.9180241,20.6135861 24.4822115,20.5853768 C24.7078864,20.5853768 24.9829277,20.5712721 25.3073354,20.5430627 C25.6317431,20.5148533 25.9490985,20.486644 26.2594015,20.4584346 C26.6261233,20.4302252 27.0069497,20.4020159 27.4018809,20.3738065 L27.7827073,26.4247156 C27.754498,26.452925 27.6980792,26.4670297 27.6134511,26.4670297 C27.5570324,26.4670297 27.4724043,26.474082 27.3595668,26.4881867 C27.2467294,26.5022914 27.1197872,26.5093437 26.9787404,26.5093437 C26.3863437,26.5657624 26.10425,26.9183795 26.1324594,27.5671949 C26.1606688,27.8210792 26.1888781,28.1736963 26.2170875,28.6250462 C26.2452969,29.076396 26.2664539,29.5489029 26.2805586,30.0425668 C26.2946632,30.5362308 26.3158203,31.01579 26.3440296,31.4812445 C26.372239,31.9466991 26.4004484,32.3204732 26.4286577,32.6025668 C26.4568671,33.1385448 26.5414952,33.4417955 26.682542,33.5123189 C26.8235889,33.5828423 27.1338919,33.618104 27.6134511,33.618104 L28.2058478,33.618104 C28.375104,33.618104 28.5373079,33.6110517 28.6924594,33.596947 C28.8476109,33.5828423 29.0239194,33.5687376 29.221385,33.554633 C29.4188506,33.5405283 29.6727349,33.5193713 29.9830379,33.4911619 C30.5754346,33.4347432 30.956261,33.307801 31.1255172,33.1103354 C31.2947734,32.9128699 31.3652969,32.6166715 31.3370875,32.2217404 C31.3370875,32.0242748 31.3159305,31.6787101 31.2736164,31.1850462 C31.2313024,30.6913823 31.1889883,30.1765613 31.1466743,29.6405834 C31.1043602,29.1046054 31.0690985,28.5968368 31.0408891,28.1172776 C31.0126798,27.6377184 30.9844704,27.299206 30.956261,27.1017404 C30.8998423,26.763228 30.8293189,26.5234484 30.7446908,26.3824016 C30.6600627,26.2413547 30.5049112,26.184936 30.2792362,26.2131454 C30.1663988,26.2131454 30.0535613,26.2201977 29.9407239,26.2343024 C29.8278864,26.2484071 29.7150489,26.2554594 29.6022115,26.2554594 L29.2636991,26.2554594 L28.8828726,20.2468644 C30.8011095,20.0776082 32.5641949,19.9365613 34.1721288,19.8237239 C34.8491536,19.7673051 35.5332307,19.7108864 36.2243602,19.6544677 C36.9154897,19.5980489 37.5572528,19.5486825 38.1496495,19.5063685 C38.7420462,19.4640544 39.2639194,19.4217404 39.7152693,19.3794263 C40.1666192,19.3371123 40.5051316,19.3018506 40.7308065,19.2736412 C41.5488781,19.2172225 42.1976935,19.3582693 42.6772528,19.6967817 C43.156812,20.0352941 43.4530104,20.5430627 43.5658478,21.2200875 C43.5940572,21.4457624 43.69279,22.1227872 43.8620462,23.2511619 C44.0313024,24.3795365 44.2428726,25.7335861 44.4967569,27.3133106 C44.7506412,28.8930352 45.0186302,30.5926495 45.3007239,32.4121536 C45.5828175,34.2316578 45.8508065,35.9312721 46.1046908,37.5109966 C46.3585751,39.0907211 46.5771977,40.4447707 46.7605586,41.5731454 C46.9439194,42.70152 47.0638093,43.3785448 47.120228,43.6042197 L47.120228,43.6042197 Z M20.5046908,47.2855421 C20.5046908,47.6804732 20.5258478,48.0260379 20.5681619,48.3222363 C20.6104759,48.6184346 20.6598423,48.8511619 20.716261,49.0204181 C20.7726798,49.246093 20.8432032,49.4153492 20.9278313,49.5281867 C20.2225971,49.1614649 19.5455723,48.7947432 18.8967569,48.4280214 C18.3325696,48.1177184 17.7683823,47.800363 17.2041949,47.4759553 C16.6400076,47.1515476 16.1604484,46.8765062 15.7655172,46.6508313 C15.0320737,46.2276908 14.5313575,45.7199222 14.2633685,45.1275255 C13.9953795,44.5351288 13.9319084,43.9145228 14.0729553,43.2657073 C14.129374,43.0964511 14.2563161,42.4758451 14.4537817,41.4038892 C14.6512473,40.3319332 14.8980792,39.0343024 15.1942776,37.5109966 C15.4904759,35.9876908 15.8007789,34.3515476 16.1251867,32.6025668 C16.4495944,30.8535861 16.7528451,29.2174429 17.0349387,27.6941371 C17.3170324,26.1708313 17.5638643,24.8590958 17.7754346,23.7589305 C17.9870048,22.6587652 18.1068947,22.0099498 18.135104,21.8124842 C18.2479415,21.1918781 18.4524594,20.7123189 18.7486577,20.3738065 C19.0448561,20.0352941 19.3904208,19.950666 19.785352,20.1199222 C20.0110269,20.2327597 20.1943878,20.3597018 20.3354346,20.5007487 C20.4200627,20.5853768 20.4764814,20.6559002 20.5046908,20.7123189 L20.5046908,47.2855421 L20.5046908,47.2855421 Z" id="path-7"></path>
        <filter x="-9.0%" y="-7.5%" width="118.1%" height="115.0%" filterUnits="objectBoundingBox" id="filter-8">
            <feOffset dx="0" dy="0" in="SourceAlpha" result="shadowOffsetOuter1"></feOffset>
            <feGaussianBlur stdDeviation="1" in="shadowOffsetOuter1" result="shadowBlurOuter1"></feGaussianBlur>
            <feColorMatrix values="0 0 0 0 0   0 0 0 0 0   0 0 0 0 0  0 0 0 0.5 0" type="matrix" in="shadowBlurOuter1"></feColorMatrix>
        </filter>
        <filter x="-9.0%" y="-7.5%" width="118.1%" height="115.0%" filterUnits="objectBoundingBox" id="filter-9">
            <feGaussianBlur stdDeviation="0.5" in="SourceAlpha" result="shadowBlurInner1"></feGaussianBlur>
            <feOffset dx="0" dy="1" in="shadowBlurInner1" result="shadowOffsetInner1"></feOffset>
            <feComposite in="shadowOffsetInner1" in2="SourceAlpha" operator="arithmetic" k2="-1" k3="1" result="shadowInnerInner1"></feComposite>
            <feColorMatrix values="0 0 0 0 0   0 0 0 0 0   0 0 0 0 0  0 0 0 0.5 0" type="matrix" in="shadowInnerInner1"></feColorMatrix>
        </filter>
    </defs>
    <g id="Page-1" stroke="none" stroke-width="1" fill="none" fill-rule="evenodd">
        <g id="gouwu" transform="translate(4.000000, 4.000000)">
            <g id="Oval">
                <use fill="black" fill-opacity="1" filter="url(#filter-2)" xlink:href="#path-1"></use>
                <use fill="#FEFEFE" fill-rule="evenodd" xlink:href="#path-1"></use>
                <use fill="black" fill-opacity="1" filter="url(#filter-3)" xlink:href="#path-1"></use>
                <use stroke="#FFFFFF" stroke-width="1" xlink:href="#path-1"></use>
            </g>
            <g id="住宿" transform="translate(11.000000, 9.000000)" fill-rule="nonzero" fill="#000000">
                <path d="M11.6798136,18.3190145 L36.6548895,18.3190145 C38.204606,18.3190145 39.9848715,16.5644278 39.9848715,14.9890324 C39.9848715,13.413637 38.2044657,11.6590504 36.6548895,11.6590504 L18.3396374,11.6590504 C18.2308879,8.07284029 15.8166474,6.66400711 13.3447345,6.66400711 C10.6295033,6.66400711 8.34955096,8.89905636 8.34955096,11.6590504 L8.34955096,14.9890324 C8.34969126,17.3839084 10.9049554,18.3190144 11.6798136,18.3190145 L11.6798136,18.3190145 Z" id="Shape"></path>
                <path d="M5.01984954,2.50135416 C5.01984954,0.772306146 3.68777254,0.00376238438 2.52225776,0.00376238438 C1.35674298,0.00376238438 0.0246659815,1.31661529 0.0246659815,2.50135416 L0.0246659815,37.8251796 C0.0246659815,39.0099184 1.36305747,39.9704227 2.52225776,39.9704227 C3.68777254,39.9704227 5.01984954,38.651115 5.01984954,37.472831 L5.01984954,29.9740218 L34.9899686,29.9740218 L34.9899686,37.4666568 C34.9899686,38.6509747 36.3219053,39.9638276 37.4874201,39.9638276 C38.6530751,39.9638276 39.9850118,39.0033233 39.9850118,37.8185845 L39.9850118,19.9839353 L5.01984954,19.9839353 L5.01984954,2.50135416 Z" id="Shape"></path>
            </g>
            <g id="Oval">
                <use fill="black" fill-opacity="1" filter="url(#filter-5)" xlink:href="#path-4"></use>
                <use fill="#FEFEFE" fill-rule="evenodd" xlink:href="#path-4"></use>
                <use fill="black" fill-opacity="1" filter="url(#filter-6)" xlink:href="#path-4"></use>
                <use stroke="#FFFFFF" stroke-width="1" xlink:href="#path-4"></use>
            </g>
            <g id="Shape" fill-rule="nonzero">
                <use fill="black" fill-opacity="1" filter="url(#filter-8)" xlink:href="#path-7"></use>
                <use fill="#4A90E2" fill-rule="evenodd" xlink:href="#path-7"></use>
                <use fill="black" fill-opacity="1" filter="url(#filter-9)" xlink:href="#path-7"></use>
            </g>
        </g>
    </g>
</svg>