<?xml version="1.0" encoding="UTF-8"?>
<svg width="69px" height="69px" viewBox="0 0 69 69" version="1.1" xmlns="http://www.w3.org/2000/svg" xmlns:xlink="http://www.w3.org/1999/xlink">
    <!-- Generator: Sketch 46.2 (44496) - http://www.bohemiancoding.com/sketch -->
    <title>Group 8</title>
    <desc>Created with Sketch.</desc>
    <defs>
        <circle id="path-1" cx="30.5" cy="30.5" r="30.5"></circle>
        <filter x="-8.2%" y="-8.2%" width="116.4%" height="116.4%" filterUnits="objectBoundingBox" id="filter-2">
            <feMorphology radius="0.5" operator="dilate" in="SourceAlpha" result="shadowSpreadOuter1"></feMorphology>
            <feOffset dx="0" dy="0" in="shadowSpreadOuter1" result="shadowOffsetOuter1"></feOffset>
            <feGaussianBlur stdDeviation="1.5" in="shadowOffsetOuter1" result="shadowBlurOuter1"></feGaussianBlur>
            <feComposite in="shadowBlurOuter1" in2="SourceAlpha" operator="out" result="shadowBlurOuter1"></feComposite>
            <feColorMatrix values="0 0 0 0 0   0 0 0 0 0   0 0 0 0 0  0 0 0 0.246065444 0" type="matrix" in="shadowBlurOuter1"></feColorMatrix>
        </filter>
        <filter x="-23.0%" y="-23.0%" width="145.9%" height="145.9%" filterUnits="objectBoundingBox" id="filter-3">
            <feGaussianBlur stdDeviation="10" in="SourceAlpha" result="shadowBlurInner1"></feGaussianBlur>
            <feOffset dx="0" dy="1" in="shadowBlurInner1" result="shadowOffsetInner1"></feOffset>
            <feComposite in="shadowOffsetInner1" in2="SourceAlpha" operator="arithmetic" k2="-1" k3="1" result="shadowInnerInner1"></feComposite>
            <feColorMatrix values="0 0 0 0 0   0 0 0 0 0   0 0 0 0 0  0 0 0 0.0452332428 0" type="matrix" in="shadowInnerInner1"></feColorMatrix>
        </filter>
        <path d="M6.35902477,3.89162472 C6.65266072,3.00726816 6.93175123,2.30707658 7.19629631,1.79104996 C7.46084139,1.27547921 7.74765917,0.892106078 8.0562951,0.641386434 C8.35586961,0.39507165 8.71214662,0.227860078 9.09265727,0.154990325 C9.47447491,0.0815978477 9.9449288,0.0296305033 10.5031098,0 L15.6181026,0 L10.5031098,32.1910347 L3.7576648,32.1910347 C1.9349401,32.1910347 0.781305369,31.5501041 0.296306054,30.2673312 C-0.188693261,28.9854701 -0.0782388716,27.1652455 0.627214678,24.8066574 C0.918989433,23.8450014 1.19825518,22.8795729 1.46494077,21.9106176 C1.78766759,20.7463667 2.13312164,19.4932244 2.5008484,18.1521022 C2.87922051,16.7695538 3.24665578,15.3840183 3.60311957,13.9956264 C3.97039178,12.5660685 4.33039127,11.2026095 4.68311804,9.9057052 C5.00194246,8.73460839 5.31800351,7.56275669 5.63129852,6.39015994 C5.91038904,5.34351939 6.15311597,4.51113017 6.35857022,3.89208058 L6.35902477,3.89162472 Z M21.4817307,5.43924871 L18.2635534,5.43924871 L18.527644,0.044673682 L21.1730948,0.044673682 L21.4821852,5.43924871 L21.4817307,5.43924871 Z M22.0990025,18.8810126 L17.645827,18.8810126 L18.1308263,8.13653622 L21.6140032,8.13653622 L22.0990025,18.8810126 Z M22.1871842,21.5783001 L22.6721836,32.3232323 L17.0285552,32.3232323 L17.5135545,21.578756 L22.1871842,21.578756 L22.1871842,21.5783001 Z M39.4267054,25.3368155 C39.6326142,25.9854956 39.7939776,26.7075682 39.9117047,27.5034891 C40.0294318,28.29941 40.0294318,29.0442752 39.9117047,29.7367173 C39.7939776,30.4296152 39.5221598,31.0117407 39.0962513,31.4830936 C38.6698882,31.9549024 38.0303437,32.1905788 37.1780722,32.1905788 L29.153538,32.1905788 L23.9953635,0.000455853898 L28.1399031,0.000455853898 C29.6094465,0.000455853898 30.8444447,0.324567975 31.8435342,0.973248072 C32.8430783,1.62147231 33.6071681,2.78617902 34.1362583,4.46645649 C34.3126217,4.99707043 34.5330759,5.82216598 34.797621,6.94265486 L35.7676196,10.7453881 C36.1203464,12.1603586 36.4803459,13.6341342 36.8480726,15.1671709 C37.2153448,16.6997517 37.5607989,18.1438968 37.8839803,19.5000622 L38.809888,23.1259241 C39.0744331,24.187152 39.2803419,24.9242677 39.4271599,25.3368155 L39.4267054,25.3368155 Z" id="path-4"></path>
        <filter x="-7.5%" y="-9.3%" width="115.0%" height="118.6%" filterUnits="objectBoundingBox" id="filter-5">
            <feOffset dx="0" dy="0" in="SourceAlpha" result="shadowOffsetOuter1"></feOffset>
            <feGaussianBlur stdDeviation="1" in="shadowOffsetOuter1" result="shadowBlurOuter1"></feGaussianBlur>
            <feColorMatrix values="0 0 0 0 0   0 0 0 0 0   0 0 0 0 0  0 0 0 0.5 0" type="matrix" in="shadowBlurOuter1"></feColorMatrix>
        </filter>
        <filter x="-7.5%" y="-9.3%" width="115.0%" height="118.6%" filterUnits="objectBoundingBox" id="filter-6">
            <feGaussianBlur stdDeviation="0.5" in="SourceAlpha" result="shadowBlurInner1"></feGaussianBlur>
            <feOffset dx="0" dy="1" in="shadowBlurInner1" result="shadowOffsetInner1"></feOffset>
            <feComposite in="shadowOffsetInner1" in2="SourceAlpha" operator="arithmetic" k2="-1" k3="1" result="shadowInnerInner1"></feComposite>
            <feColorMatrix values="0 0 0 0 0   0 0 0 0 0   0 0 0 0 0  0 0 0 0.5 0" type="matrix" in="shadowInnerInner1"></feColorMatrix>
        </filter>
    </defs>
    <g id="Page-1" stroke="none" stroke-width="1" fill="none" fill-rule="evenodd">
        <g id="Group-8" transform="translate(4.000000, 4.000000)">
            <g id="Group-7">
                <g id="yanpiao">
                    <g id="Oval">
                        <use fill="black" fill-opacity="1" filter="url(#filter-2)" xlink:href="#path-1"></use>
                        <use fill="#FEFEFE" fill-rule="evenodd" xlink:href="#path-1"></use>
                        <use fill="black" fill-opacity="1" filter="url(#filter-3)" xlink:href="#path-1"></use>
                        <use stroke="#FFFFFF" stroke-width="1" xlink:href="#path-1"></use>
                    </g>
                </g>
                <g id="高速" transform="translate(11.000000, 14.000000)" fill-rule="nonzero">
                    <g id="Shape">
                        <use fill="black" fill-opacity="1" filter="url(#filter-5)" xlink:href="#path-4"></use>
                        <use fill="#4A90E2" fill-rule="evenodd" xlink:href="#path-4"></use>
                        <use fill="black" fill-opacity="1" filter="url(#filter-6)" xlink:href="#path-4"></use>
                    </g>
                </g>
            </g>
        </g>
    </g>
</svg>