<?xml version="1.0" encoding="UTF-8"?>
<svg width="69px" height="69px" viewBox="0 0 69 69" version="1.1" xmlns="http://www.w3.org/2000/svg" xmlns:xlink="http://www.w3.org/1999/xlink">
    <!-- Generator: Sketch 46.2 (44496) - http://www.bohemiancoding.com/sketch -->
    <title>Group 27</title>
    <desc>Created with Sketch.</desc>
    <defs>
        <circle id="path-1" cx="30.5" cy="30.5" r="30.5"></circle>
        <filter x="-8.2%" y="-8.2%" width="116.4%" height="116.4%" filterUnits="objectBoundingBox" id="filter-2">
            <feMorphology radius="0.5" operator="dilate" in="SourceAlpha" result="shadowSpreadOuter1"></feMorphology>
            <feOffset dx="0" dy="0" in="shadowSpreadOuter1" result="shadowOffsetOuter1"></feOffset>
            <feGaussianBlur stdDeviation="1.5" in="shadowOffsetOuter1" result="shadowBlurOuter1"></feGaussianBlur>
            <feComposite in="shadowBlurOuter1" in2="SourceAlpha" operator="out" result="shadowBlurOuter1"></feComposite>
            <feColorMatrix values="0 0 0 0 0   0 0 0 0 0   0 0 0 0 0  0 0 0 0.246065444 0" type="matrix" in="shadowBlurOuter1"></feColorMatrix>
        </filter>
        <filter x="-23.0%" y="-23.0%" width="145.9%" height="145.9%" filterUnits="objectBoundingBox" id="filter-3">
            <feGaussianBlur stdDeviation="10" in="SourceAlpha" result="shadowBlurInner1"></feGaussianBlur>
            <feOffset dx="0" dy="1" in="shadowBlurInner1" result="shadowOffsetInner1"></feOffset>
            <feComposite in="shadowOffsetInner1" in2="SourceAlpha" operator="arithmetic" k2="-1" k3="1" result="shadowInnerInner1"></feComposite>
            <feColorMatrix values="0 0 0 0 0   0 0 0 0 0   0 0 0 0 0  0 0 0 0.0452332428 0" type="matrix" in="shadowInnerInner1"></feColorMatrix>
        </filter>
        <path d="M27.7257782,15.7745066 C26.1825432,14.4164191 24.379939,13.7620549 22.3304985,13.7497253 C20.7872635,13.737355 19.2439471,13.7497253 17.7006714,13.7497253 C16.7006307,13.7497253 15.7129603,13.9102543 14.774649,14.28059 C12.9473856,14.9843133 11.5523093,16.1819125 10.6016684,17.8980061 C9.87324517,19.2066938 9.58925738,20.6265107 9.63865717,22.1203866 C9.65102747,22.3920041 9.68805697,22.6635809 9.82384537,22.9105799 C10.0460631,23.3180264 10.4164395,23.5772737 10.8238861,23.7500916 C11.5646796,24.0710682 12.3547915,24.1945677 13.1573143,24.2439674 C14.0338555,24.3056968 14.9228077,24.3427263 15.7993896,24.3550966 C17.1945066,24.3674669 18.577294,24.3550966 19.9723703,24.3550966 C21.2687284,24.3550966 22.5774161,24.3674669 23.8737742,24.3550966 C25.2318616,24.3427263 26.5899491,24.3303967 27.9233367,24.0834791 C28.4789013,23.9847202 29.0345066,23.8365615 29.5283418,23.5402848 C30.0098474,23.2439674 30.3431943,22.8365615 30.3678535,22.256297 C30.404883,21.6019736 30.3802238,20.9476094 30.2690946,20.3056155 C29.948118,18.5030519 29.096236,16.9845168 27.7258189,15.774588 L27.7257782,15.7745066 Z M21.7131638,12.8237843 C24.3552391,11.9719023 26.1084028,9.58907426 26.1084028,6.95936928 C26.1084028,6.35440488 26.0466734,5.84819939 25.910885,5.34203459 C25.1454323,2.37894201 22.2810987,0.341831129 19.0957884,0.675178026 C17.87353,0.798677518 16.7747304,1.25544252 15.8117192,2.02093591 C13.7869379,3.6012411 12.9350966,6.31741607 13.7252085,8.76197355 C14.7869786,12.0707426 18.3426653,13.9103357 21.7131638,12.8238657 L21.7131638,12.8237843 Z" id="path-4"></path>
        <filter x="-14.5%" y="-12.6%" width="128.9%" height="125.3%" filterUnits="objectBoundingBox" id="filter-5">
            <feOffset dx="0" dy="0" in="SourceAlpha" result="shadowOffsetOuter1"></feOffset>
            <feGaussianBlur stdDeviation="1" in="shadowOffsetOuter1" result="shadowBlurOuter1"></feGaussianBlur>
            <feColorMatrix values="0 0 0 0 0   0 0 0 0 0   0 0 0 0 0  0 0 0 0.5 0" type="matrix" in="shadowBlurOuter1"></feColorMatrix>
        </filter>
        <filter x="-14.5%" y="-12.6%" width="128.9%" height="125.3%" filterUnits="objectBoundingBox" id="filter-6">
            <feGaussianBlur stdDeviation="0.5" in="SourceAlpha" result="shadowBlurInner1"></feGaussianBlur>
            <feOffset dx="0" dy="1" in="shadowBlurInner1" result="shadowOffsetInner1"></feOffset>
            <feComposite in="shadowOffsetInner1" in2="SourceAlpha" operator="arithmetic" k2="-1" k3="1" result="shadowInnerInner1"></feComposite>
            <feColorMatrix values="0 0 0 0 0   0 0 0 0 0   0 0 0 0 0  0 0 0 0.5 0" type="matrix" in="shadowInnerInner1"></feColorMatrix>
        </filter>
        <path d="M39.8867141,17.8363174 C39.6521261,16.5029298 39.0225025,15.3793896 38.0101322,14.4781485 C36.8742625,13.4781078 35.5285453,12.9842319 34.0099695,12.9842319 L30.5777416,12.9842319 C29.8369481,12.9842319 29.1085249,13.1077314 28.4171312,13.3793082 C27.8739369,13.5891556 27.380061,13.8608138 26.9355849,14.1941607 C27.528179,14.5028077 28.0837843,14.8732248 28.6023194,15.3423601 C29.9727365,16.5522482 30.8246185,18.0708647 31.1455951,19.8857172 C31.2073245,20.2066938 31.2320244,20.5277111 31.2567243,20.8487284 L35.1581282,20.8487284 C36.1581689,20.8363581 37.1582096,20.8363581 38.1582503,20.6512106 C38.5780264,20.5771109 38.985473,20.4660224 39.3434791,20.243764 C39.7015259,20.0215463 39.9484435,19.7252289 39.9607731,19.2931231 C39.985473,18.7869583 39.9731434,18.3054527 39.8866734,17.836236 L39.8867141,17.8363174 Z M33.5654934,12.2928789 C35.516175,11.6632146 36.8125331,9.89772126 36.8125331,7.95936928 C36.8125331,7.51489318 36.7631333,7.13214649 36.6643744,6.76181078 C36.0964395,4.5765412 33.9852289,3.07029502 31.6271414,3.31721261 C30.7258596,3.41597152 29.9110071,3.74931841 29.1949542,4.30488301 C27.7010376,5.47774161 27.0713733,7.47782299 27.6517192,9.29271617 C28.4419125,11.7372737 31.0716175,13.0953611 33.5655341,12.2928383 L33.5654934,12.2928789 Z M13.0585148,14.1942014 C11.9967447,13.3793489 10.7744863,12.9843133 9.41639878,12.9843133 L5.98417091,12.9843133 C5.24337742,12.9843133 4.51495422,13.1078128 3.82356053,13.3793896 C2.47780264,13.8979247 1.44073245,14.7868769 0.737009156,16.0461648 C0.193814852,17.0215056 -0.0161139369,18.0709461 0.0209155646,19.1697864 C0.0332858596,19.3796338 0.0579450661,19.577233 0.156744659,19.7500509 C0.329562564,20.0586979 0.588850458,20.2439268 0.897538149,20.3673449 C1.45310275,20.6019329 2.03340793,20.6883215 2.62600203,20.7377213 C3.28032553,20.7871211 3.93468973,20.811821 4.57668362,20.8241506 C5.60142421,20.8365209 6.6384944,20.8241506 7.66323499,20.8241506 L8.72500509,20.8241506 C8.78673449,19.6389217 9.08305188,18.5030926 9.67564598,17.4412818 C10.5028688,15.996765 11.6386979,14.9103357 13.0585148,14.1942421 L13.0585148,14.1942014 Z M8.97192269,12.2928789 C10.9226043,11.6632146 12.2189624,9.89772126 12.2189624,7.95936928 C12.2189624,7.51489318 12.1695626,7.13214649 12.0708037,6.76181078 C11.5028688,4.5765412 9.39165819,3.07029502 7.0335707,3.31721261 C6.13228891,3.41597152 5.31743642,3.74931841 4.60138352,4.30488301 C3.10746694,5.47774161 2.47780264,7.47782299 3.05814852,9.29271617 C3.84834181,11.7372737 6.4780468,13.0953611 8.97196338,12.2928383 L8.97192269,12.2928789 Z" id="path-7"></path>
        <filter x="-7.5%" y="-17.1%" width="115.0%" height="134.2%" filterUnits="objectBoundingBox" id="filter-8">
            <feOffset dx="0" dy="0" in="SourceAlpha" result="shadowOffsetOuter1"></feOffset>
            <feGaussianBlur stdDeviation="1" in="shadowOffsetOuter1" result="shadowBlurOuter1"></feGaussianBlur>
            <feColorMatrix values="0 0 0 0 0   0 0 0 0 0   0 0 0 0 0  0 0 0 0.5 0" type="matrix" in="shadowBlurOuter1"></feColorMatrix>
        </filter>
        <filter x="-7.5%" y="-17.1%" width="115.0%" height="134.2%" filterUnits="objectBoundingBox" id="filter-9">
            <feGaussianBlur stdDeviation="0.5" in="SourceAlpha" result="shadowBlurInner1"></feGaussianBlur>
            <feOffset dx="0" dy="1" in="shadowBlurInner1" result="shadowOffsetInner1"></feOffset>
            <feComposite in="shadowOffsetInner1" in2="SourceAlpha" operator="arithmetic" k2="-1" k3="1" result="shadowInnerInner1"></feComposite>
            <feColorMatrix values="0 0 0 0 0   0 0 0 0 0   0 0 0 0 0  0 0 0 0.5 0" type="matrix" in="shadowInnerInner1"></feColorMatrix>
        </filter>
    </defs>
    <g id="Page-1" stroke="none" stroke-width="1" fill="none" fill-rule="evenodd">
        <g id="Group-27" transform="translate(4.000000, 4.000000)">
            <g id="Oval">
                <use fill="black" fill-opacity="1" filter="url(#filter-2)" xlink:href="#path-1"></use>
                <use fill="#FEFEFE" fill-rule="evenodd" xlink:href="#path-1"></use>
                <use fill="black" fill-opacity="1" filter="url(#filter-3)" xlink:href="#path-1"></use>
                <use stroke="#FFFFFF" stroke-width="1" xlink:href="#path-1"></use>
            </g>
            <g id="人员密集点" transform="translate(11.000000, 21.000000)"></g>
            <g id="Group-23" transform="translate(11.000000, 18.000000)" fill-rule="nonzero">
                <g id="Shape">
                    <use fill="black" fill-opacity="1" filter="url(#filter-5)" xlink:href="#path-4"></use>
                    <use fill="#D0021B" fill-rule="evenodd" xlink:href="#path-4"></use>
                    <use fill="black" fill-opacity="1" filter="url(#filter-6)" xlink:href="#path-4"></use>
                </g>
                <g id="Shape">
                    <use fill="black" fill-opacity="1" filter="url(#filter-8)" xlink:href="#path-7"></use>
                    <use fill="#D0021B" fill-rule="evenodd" xlink:href="#path-7"></use>
                    <use fill="black" fill-opacity="1" filter="url(#filter-9)" xlink:href="#path-7"></use>
                </g>
            </g>
        </g>
    </g>
</svg>