<?xml version="1.0" encoding="UTF-8"?>
<svg width="679px" height="830px" viewBox="0 0 679 830" version="1.1" xmlns="http://www.w3.org/2000/svg" xmlns:xlink="http://www.w3.org/1999/xlink">
    <!-- Generator: Sketch 46.2 (44496) - http://www.bohemiancoding.com/sketch -->
    <title>Shape</title>
    <desc>Created with Sketch.</desc>
    <defs></defs>
    <g id="Page-1" stroke="none" stroke-width="1" fill="none" fill-rule="evenodd">
        <path d="M676.37334,226.829 C671.76434,308.931 674.34634,388.362 674.34634,388.362 L476.05134,394.995 C476.05134,394.995 489.92834,366.323 462.63734,312.433 C405.95934,197.047 344.25734,49.9 474.50834,13.341 C568.98534,-10.492 653.07034,-12.613 674.25834,111.532 C681.09734,151.825 678.52334,188.84 676.37434,226.828 L676.37434,226.828 L676.37334,226.829 Z M203.431,671.554 L4.674,664.916 C4.674,664.916 7.213,585.488 2.598,503.383 C0.455,465.443 -2.152,428.381 4.765,388.135 C25.927,263.9 110.219,266.112 205.021,289.896 C335.574,326.501 273.711,473.65 216.867,588.988 C189.481,642.88 203.43,671.553 203.43,671.553 L203.43,671.553 L203.431,671.554 Z M183.747,813.678 C131.587,832.625 25.785,863.279 2.597,705.804 L206.887,705.804 C206.888,705.804 235.911,794.733 183.746,813.678 L183.746,813.678 L183.747,813.678 Z M677.084963,429.549197 C653.943963,587.070197 548.440963,556.412197 496.445963,537.512197 C444.352963,518.519197 473.304963,429.549197 473.304963,429.549197 L677.085963,429.549197 L677.084963,429.549197 Z" id="Shape" fill="#fff" fill-rule="nonzero"></path>
    </g>
</svg>