<?xml version="1.0" encoding="UTF-8"?>
<svg width="69px" height="69px" viewBox="0 0 69 69" version="1.1" xmlns="http://www.w3.org/2000/svg" xmlns:xlink="http://www.w3.org/1999/xlink">
    <!-- Generator: Sketch 46.2 (44496) - http://www.bohemiancoding.com/sketch -->
    <title>Group 26</title>
    <desc>Created with Sketch.</desc>
    <defs>
        <circle id="path-1" cx="30.5" cy="30.5" r="30.5"></circle>
        <filter x="-8.2%" y="-8.2%" width="116.4%" height="116.4%" filterUnits="objectBoundingBox" id="filter-2">
            <feMorphology radius="0.5" operator="dilate" in="SourceAlpha" result="shadowSpreadOuter1"></feMorphology>
            <feOffset dx="0" dy="0" in="shadowSpreadOuter1" result="shadowOffsetOuter1"></feOffset>
            <feGaussianBlur stdDeviation="1.5" in="shadowOffsetOuter1" result="shadowBlurOuter1"></feGaussianBlur>
            <feComposite in="shadowBlurOuter1" in2="SourceAlpha" operator="out" result="shadowBlurOuter1"></feComposite>
            <feColorMatrix values="0 0 0 0 0   0 0 0 0 0   0 0 0 0 0  0 0 0 0.246065444 0" type="matrix" in="shadowBlurOuter1"></feColorMatrix>
        </filter>
        <filter x="-23.0%" y="-23.0%" width="145.9%" height="145.9%" filterUnits="objectBoundingBox" id="filter-3">
            <feGaussianBlur stdDeviation="10" in="SourceAlpha" result="shadowBlurInner1"></feGaussianBlur>
            <feOffset dx="0" dy="1" in="shadowBlurInner1" result="shadowOffsetInner1"></feOffset>
            <feComposite in="shadowOffsetInner1" in2="SourceAlpha" operator="arithmetic" k2="-1" k3="1" result="shadowInnerInner1"></feComposite>
            <feColorMatrix values="0 0 0 0 0   0 0 0 0 0   0 0 0 0 0  0 0 0 0.0452332428 0" type="matrix" in="shadowInnerInner1"></feColorMatrix>
        </filter>
        <path d="M16.4578675,39.2214965 L16.4583675,39.2214965 C16.4578675,39.2054965 16.4572675,39.1891965 16.4578675,39.2214965 Z M23.0499332,33.804098 C20.4030735,34.0499777 17.7202227,34.0058797 14.9540757,33.6847216 C15.3881514,32.034922 15.755412,30.5135412 16.2114477,29.0203563 C16.2981737,28.7343875 16.7055679,28.4514922 17.0246325,28.3458352 C17.7991537,28.0908241 18.6002227,27.8314477 19.4066815,27.7678396 C21.6616036,27.5897996 23.9216481,27.4697105 26.1831626,27.3713586 C26.4430726,26.8178503 26.6995881,26.2627545 26.9526949,25.7061024 C26.1633408,25.605167 25.3684187,25.5341648 24.578441,25.4387528 C22.8675278,25.3369265 21.341069,25.4595991 19.5166592,25.8768374 C18.8678842,26.0339421 18.2125612,26.1723385 17.5696659,26.3523831 C15.8622272,26.8331403 14.5678842,27.7001336 14.2366147,29.6059243 C14.0383964,30.7394655 13.6887305,31.8497996 13.3694432,32.9591982 C13.3077951,33.1736748 13.0650334,33.5065924 12.9168374,33.5009354 C11.6906904,33.4530067 11.2824499,34.2278842 11.0430735,35.2065033 C11.003608,35.4322049 11.0549666,35.6312695 11.0950557,35.7942984 C11.5714477,35.8761693 12.0480178,35.9580846 12.3827171,36.0144766 C12.5134521,37.7535412 12.6399109,39.4809354 12.7752339,41.2076615 C12.8479733,42.1377283 12.8932294,43.0733185 13.0395991,43.9926058 C13.1084633,44.4174165 13.3274833,45.0693096 13.5780846,45.2141648 C13.7721604,45.4281514 16.886637,45.1505568 17.4482851,44.8791982 C17.705657,44.7546548 17.7174165,43.387216 17.8670379,42.56049 L22.0951893,42.1945657 C22.2649443,39.9746993 22.4751448,37.7579065 22.6901114,35.542049 C22.7451225,34.9545212 22.9291759,34.3779065 23.0531403,33.8052116 C23.0519376,33.8048552 23.0509577,33.8044543 23.0499332,33.804098 L23.0499332,33.804098 Z M18.4098441,38.3844098 C18.3397773,38.6387082 17.992784,38.9033853 17.708686,38.9953229 C17.3177283,39.1219599 16.8776392,39.174922 16.457951,39.2112249 C16.4581292,39.2181737 16.4583964,39.2250334 16.4577283,39.2112695 C15.8386192,39.2005791 15.2142984,39.2371492 14.6029844,39.1657906 C13.8082851,39.0723385 13.5375501,38.5158575 13.6816481,37.4636526 C13.7806682,36.7440535 14.3355902,36.6649889 14.8503341,36.7845434 C15.8838753,37.0236971 16.9038753,37.3370601 17.9014254,37.693853 C18.141069,37.7788864 18.45902,38.2037416 18.4098441,38.3844098 L18.4098441,38.3844098 Z M44.3413363,39.5927053 L44.3420363,39.5928053 C44.3428363,39.5536053 44.3419363,39.5733053 44.3413363,39.5927053 Z M29.6985301,16.9987528 L26.7642762,15.801069 L27.4082851,21.9441425 L29.6985301,16.9987528 L29.6985301,16.9987528 Z M21.4925167,13.0273497 L18.2293541,15.7808909 L25.9215145,21.873853 L21.4925167,13.0273497 L21.4925167,13.0273497 Z M48.6655679,32.6070379 C48.4845434,32.6141203 48.1881069,32.2074833 48.1127394,31.9455679 C47.7228508,30.5907795 47.2958575,29.2350557 47.0538085,27.8506904 C46.6491759,25.5234744 45.0687305,24.4646325 42.9836971,23.8776392 C42.1985746,23.6578619 41.3983073,23.4887751 40.606147,23.2971938 C38.3781737,22.7875724 36.5140757,22.6375947 34.425078,22.7620935 C32.9878842,22.935412 31.5373274,23.0427171 30.1160356,23.3036971 C29.0636526,23.4967929 28.2602673,24.1216481 27.8002227,25.1429844 C27.0700668,26.7560802 26.3126503,28.3569265 25.5245434,29.9424053 C25.3909131,30.2075278 24.9996437,30.5809354 24.8020935,30.5418708 C23.4635189,30.2741203 22.7616481,30.9623608 22.2511804,32.026147 C22.1219154,32.3542984 22.1474388,32.6965702 22.171804,32.9231626 C22.7214699,33.1262806 23.271314,33.3281069 23.7767483,33.5139421 C23.652784,34.086637 23.4688196,34.6633408 23.4137194,35.2510022 C23.1537639,37.9311359 22.8997773,40.6125612 22.7171492,43.2992428 C22.6839198,43.7785746 22.8977728,44.5475724 23.082049,44.6851225 C23.2385301,45.0146102 27.3434744,45.3547884 27.6819599,45.1648998 C28.8086414,44.5723831 28.2544766,43.366637 28.6787528,42.4638307 L42.6206236,43.6704232 C42.8032517,44.6800891 42.8175947,46.3499777 43.1319822,46.5019599 C43.8178174,46.8334076 47.6210245,47.1722049 47.8581292,46.9109577 C48.1639198,46.7340757 48.4315367,45.9380846 48.5156347,45.4193318 C48.6943875,44.2966147 48.7496214,43.1542094 48.8385301,42.0183519 C49.0036971,39.9097996 49.1581737,37.8003563 49.3177283,35.6768374 C49.7264588,35.6078842 50.3083742,35.5077506 50.8901559,35.407706 C50.9393318,35.2085969 51.0019599,34.9655234 50.9538085,34.6898886 C50.6614699,33.4946548 50.1628508,32.5484633 48.6655679,32.6070379 Z M29.7050334,38.1338085 C29.1115367,38.2086414 28.4993318,38.1435189 27.7378174,38.1397327 C27.0828508,38.0036526 26.2650334,37.9032517 25.4954566,37.6547439 C24.4433408,37.3180401 24.7493096,36.4413808 24.8414254,35.6845434 C24.9202227,35.0369265 25.371314,34.5839198 25.9465924,34.8173274 C27.3849889,35.3991091 28.805657,36.0609354 30.1380846,36.8488641 C30.7501114,37.2114922 30.4462361,38.0392873 29.7050334,38.1338085 L29.7050334,38.1338085 Z M27.3277506,31.2003118 C27.9996437,29.6337639 28.6571492,28.2469042 29.1863252,26.8160802 C29.6419154,25.5873051 30.5201782,25.0391537 31.7509577,25.0911359 C34.7510468,25.216971 37.7493541,25.3700668 40.7404454,25.6062361 C41.7253898,25.6837862 42.7034744,26.0005345 43.6494432,26.3120713 C44.0390646,26.441069 44.5365256,26.7864588 44.6423608,27.1356347 C45.1992873,28.9591982 45.6477951,30.816971 46.1778174,32.8316704 C39.6538976,33.5889087 33.5093096,33.0882405 27.3277506,31.2003118 Z M46.6065479,39.5246771 C45.8600445,39.6118931 45.0976392,39.5671715 44.3416036,39.5802227 C44.3408463,39.5970601 44.3410245,39.588686 44.3412918,39.5801782 C43.8287751,39.5358575 43.2914477,39.4712695 42.813853,39.3166592 C42.4670379,39.2042762 42.0432517,38.8811581 41.9576837,38.5706459 C41.8975947,38.3500223 42.2858352,37.8312695 42.5785301,37.7273051 C43.7966592,37.2915367 45.0423163,36.9089532 46.3044098,36.616882 C46.9330512,36.4710468 47.6106904,36.5674388 47.7315813,37.4461915 C47.9075724,38.7311359 47.5770601,39.4106459 46.6065479,39.5246771 Z" id="path-4"></path>
        <filter x="-7.5%" y="-8.8%" width="115.0%" height="117.7%" filterUnits="objectBoundingBox" id="filter-5">
            <feOffset dx="0" dy="0" in="SourceAlpha" result="shadowOffsetOuter1"></feOffset>
            <feGaussianBlur stdDeviation="1" in="shadowOffsetOuter1" result="shadowBlurOuter1"></feGaussianBlur>
            <feColorMatrix values="0 0 0 0 0   0 0 0 0 0   0 0 0 0 0  0 0 0 0.5 0" type="matrix" in="shadowBlurOuter1"></feColorMatrix>
        </filter>
        <filter x="-7.5%" y="-8.8%" width="115.0%" height="117.7%" filterUnits="objectBoundingBox" id="filter-6">
            <feGaussianBlur stdDeviation="0.5" in="SourceAlpha" result="shadowBlurInner1"></feGaussianBlur>
            <feOffset dx="0" dy="1" in="shadowBlurInner1" result="shadowOffsetInner1"></feOffset>
            <feComposite in="shadowOffsetInner1" in2="SourceAlpha" operator="arithmetic" k2="-1" k3="1" result="shadowInnerInner1"></feComposite>
            <feColorMatrix values="0 0 0 0 0   0 0 0 0 0   0 0 0 0 0  0 0 0 0.5 0" type="matrix" in="shadowInnerInner1"></feColorMatrix>
        </filter>
    </defs>
    <g id="Page-1" stroke="none" stroke-width="1" fill="none" fill-rule="evenodd">
        <g id="Group-26" transform="translate(4.000000, 4.000000)">
            <g id="Oval">
                <use fill="black" fill-opacity="1" filter="url(#filter-2)" xlink:href="#path-1"></use>
                <use fill="#FEFEFE" fill-rule="evenodd" xlink:href="#path-1"></use>
                <use fill="black" fill-opacity="1" filter="url(#filter-3)" xlink:href="#path-1"></use>
                <use stroke="#FFFFFF" stroke-width="1" xlink:href="#path-1"></use>
            </g>
            <g id="Shape" fill-rule="nonzero">
                <use fill="black" fill-opacity="1" filter="url(#filter-5)" xlink:href="#path-4"></use>
                <use fill="#D0021B" fill-rule="evenodd" xlink:href="#path-4"></use>
                <use fill="black" fill-opacity="1" filter="url(#filter-6)" xlink:href="#path-4"></use>
            </g>
        </g>
    </g>
</svg>