<?xml version="1.0" encoding="UTF-8"?>
<svg width="69px" height="69px" viewBox="0 0 69 69" version="1.1" xmlns="http://www.w3.org/2000/svg" xmlns:xlink="http://www.w3.org/1999/xlink">
    <!-- Generator: Sketch 46.2 (44496) - http://www.bohemiancoding.com/sketch -->
    <title>Group 25</title>
    <desc>Created with Sketch.</desc>
    <defs>
        <circle id="path-1" cx="30.5" cy="30.5" r="30.5"></circle>
        <filter x="-8.2%" y="-8.2%" width="116.4%" height="116.4%" filterUnits="objectBoundingBox" id="filter-2">
            <feMorphology radius="0.5" operator="dilate" in="SourceAlpha" result="shadowSpreadOuter1"></feMorphology>
            <feOffset dx="0" dy="0" in="shadowSpreadOuter1" result="shadowOffsetOuter1"></feOffset>
            <feGaussianBlur stdDeviation="1.5" in="shadowOffsetOuter1" result="shadowBlurOuter1"></feGaussianBlur>
            <feComposite in="shadowBlurOuter1" in2="SourceAlpha" operator="out" result="shadowBlurOuter1"></feComposite>
            <feColorMatrix values="0 0 0 0 0   0 0 0 0 0   0 0 0 0 0  0 0 0 0.246065444 0" type="matrix" in="shadowBlurOuter1"></feColorMatrix>
        </filter>
        <filter x="-23.0%" y="-23.0%" width="145.9%" height="145.9%" filterUnits="objectBoundingBox" id="filter-3">
            <feGaussianBlur stdDeviation="10" in="SourceAlpha" result="shadowBlurInner1"></feGaussianBlur>
            <feOffset dx="0" dy="1" in="shadowBlurInner1" result="shadowOffsetInner1"></feOffset>
            <feComposite in="shadowOffsetInner1" in2="SourceAlpha" operator="arithmetic" k2="-1" k3="1" result="shadowInnerInner1"></feComposite>
            <feColorMatrix values="0 0 0 0 0   0 0 0 0 0   0 0 0 0 0  0 0 0 0.0452332428 0" type="matrix" in="shadowInnerInner1"></feColorMatrix>
        </filter>
        <path d="M34.7780498,39.2370287 C34.7780498,38.1323983 33.8846537,37.214161 32.7502801,37.214161 C31.6409355,37.214161 30.7225103,38.1323568 30.7225103,39.2370287 C30.7225103,40.3684111 31.6409355,41.2598963 32.7502801,41.2598963 C33.8846121,41.2598549 34.7780498,40.3683696 34.7780498,39.2370287 Z M50.807376,26.1961436 C50.4251215,24.5368131 49.4702753,23.2328905 47.8813457,23.2328905 L44.6878536,23.2328905 C44.6671485,22.4834191 44.6878536,21.7147443 44.6878536,20.9482678 C44.7066878,19.8941966 44.7257298,18.8410794 44.6878536,17.8064605 C44.6878536,17.3601787 44.2849356,17.019951 43.8073878,17.019951 L43.7690542,17.019951 C42.1417494,16.9857748 39.962558,17.0021578 37.9918312,17.019951 L35.4650186,17.019951 C35.1211392,17.019951 34.8345939,17.1995421 34.70263,17.4670209 C33.5721646,19.1619378 32.0996076,21.5543566 30.8562204,23.6083727 C30.5873035,24.0345802 30.340339,24.4462295 30.0905057,24.8560539 C29.5172487,24.123795 28.883789,23.2855235 28.2342807,22.446464 C27.2583551,21.16133 26.2649675,19.8942795 25.5961677,19.0371365 C24.8303283,18.0910688 24.0646136,17.6646955 23.2051023,17.7344996 C22.4203456,17.7878792 21.6735067,18.2707843 20.8713294,19.1448082 L16.4328287,23.9469414 C16.1827875,24.2321718 16.1635376,24.6422036 16.3928736,24.9468449 C16.6617489,25.3210828 16.8529593,25.6433514 17.0630455,25.9805513 C17.3895042,26.516836 17.7334252,27.0530793 18.3238948,27.8195144 C18.592978,28.1775352 19.1295229,28.248791 19.5117358,27.9976953 C19.6054493,27.9279326 19.6836963,27.8551008 19.7409056,27.785504 C20.143782,27.3026404 20.4492031,26.9460297 20.7549568,26.5865572 C21.4425907,25.766701 22.1510546,24.9468449 22.896272,24.1073705 C23.1081875,23.8579339 23.0698539,23.6797529 23.1270216,23.7137218 C23.3563577,23.8207299 23.7591094,24.3570146 24.3704505,25.2498271 L29.4584596,32.5148883 C29.63042,32.7467392 30.437628,33.1684672 30.7225519,33.1684672 C36.5971886,33.2590922 41.073233,33.1684672 46.9445436,33.1684672 L47.8813457,32.86984 C49.4319418,32.86984 50.407701,31.5315752 50.7882924,29.8202338 C50.9235408,29.2469525 51,28.622946 51,27.9976538 C51,27.3738547 50.9235408,26.7663971 50.807376,26.1961436 Z M42.8890041,24.1269887 C42.8890041,24.6549367 42.4938194,25.077121 41.9998488,25.077121 L35.7874444,25.077121 C35.6473316,25.077121 35.4895903,25.0350643 35.350891,24.9502874 C34.9147118,24.6970349 34.7780498,24.1269887 35.0150775,23.6613376 L37.1705703,19.5812601 C37.3088123,19.2426501 37.626831,19.0085595 37.9822686,19.0085595 L41.9998488,19.0085595 C42.4937778,19.0085595 42.8890041,19.4538044 42.8890041,19.9603093 L42.8890041,24.1269887 Z M24.5997449,34.5486642 C22.7452245,34.1742603 21.3089638,33.7108489 20.314121,32.9249616 C19.3586095,32.174868 18.7648969,31.0696155 18.4974768,29.4074232 C18.4798068,29.2840735 18.4402675,29.1580279 18.3429369,29.0524715 L16.0298691,25.7505669 C15.7798279,25.3759556 15.2449045,25.2675373 14.8454373,25.5171399 C14.8055239,25.5351405 14.7673566,25.5707684 14.7290231,25.6063548 C12.2998737,27.5698288 10.4451038,29.9094902 11.1519877,33.067722 C11.3797023,34.0672107 11.8779136,34.9956925 12.5863774,35.7635793 C13.2549278,36.5478075 14.1546436,37.1733072 15.1703578,37.6203355 C17.8654306,38.7614233 21.5017957,38.5846526 24.9834546,35.9583921 C25.3461681,35.6924064 25.4035853,35.1739149 25.1170815,34.8338532 C24.9834546,34.6734655 24.7924105,34.5842506 24.5997449,34.5487056 L24.5997449,34.5486642 Z M40.8612759,39.2370287 C40.8612759,38.1323983 39.9704991,37.214161 38.832342,37.214161 C37.7280283,37.214161 36.8058196,38.1323568 36.8058196,39.2370287 C36.8058196,40.3684111 37.7280283,41.2598963 38.832342,41.2598963 C39.9704576,41.2598549 40.8612759,40.3683696 40.8612759,39.2370287 Z M49.131593,36.3815717 C48.4194705,35.6519259 47.426457,35.1913348 46.3401459,35.1913348 L30.6181533,35.1913348 C29.5333389,35.1913348 28.5405748,35.6518844 27.8282029,36.3815717 C27.1176602,37.1126692 26.6671371,38.1141488 26.6671371,39.2275307 C26.6671371,40.3231193 27.0988261,41.3037779 27.7909503,42.0347925 C27.7909503,42.0524198 27.8095766,42.0716232 27.8282444,42.0924442 C28.5405748,42.8218826 29.5333804,43.2827225 30.6181948,43.2827225 L46.3400627,43.2827225 C47.4076229,43.2827225 48.3633422,42.8411275 49.0738432,42.1501373 C49.0942989,42.1292748 49.1130083,42.1115231 49.1316346,42.0924856 C49.8421772,41.3614296 50.2912867,40.3423227 50.2912867,39.2275307 C50.2912867,38.1523897 49.8626329,37.151076 49.1689287,36.421679 C49.1689287,36.4024341 49.1504688,36.4024341 49.1316346,36.3815717 L49.131593,36.3815717 Z M47.5704365,40.656462 L47.5345144,40.6898087 C47.1543387,41.041774 46.6135114,41.2598549 46.0352237,41.2598549 L30.8772581,41.2598549 C30.2841276,41.2598549 29.7239256,41.0250177 29.3436668,40.656462 C29.3258305,40.656462 29.3077447,40.6396227 29.3077447,40.6214147 C28.927569,40.2694494 28.6947821,39.7651426 28.6947821,39.2287335 C28.6947821,38.6754436 28.9456133,38.1725885 29.3436252,37.8023737 C29.7419282,37.431993 30.284086,37.2141195 30.8772165,37.2141195 L46.0352237,37.2141195 C46.6315556,37.2141195 47.2151236,37.4744229 47.6129693,37.8448451 L47.6050697,37.8357204 C47.9850791,38.2046909 48.2209011,38.6922414 48.2209011,39.228692 C48.2209426,39.7831847 47.9670764,40.3044551 47.5704781,40.656462 L47.5704365,40.656462 Z M46.9444605,39.2370287 C46.9444605,38.1323983 46.0538916,37.214161 44.9155266,37.214161 C43.8111712,37.214161 42.8889626,38.1323568 42.8889626,39.2370287 C42.8889626,40.3684111 43.8111712,41.2598963 44.915485,41.2598963 C46.05385,41.2598549 46.9444189,40.3683696 46.9444189,39.2370287 L46.9444605,39.2370287 Z" id="path-4"></path>
        <filter x="-7.5%" y="-11.4%" width="115.0%" height="122.8%" filterUnits="objectBoundingBox" id="filter-5">
            <feOffset dx="0" dy="0" in="SourceAlpha" result="shadowOffsetOuter1"></feOffset>
            <feGaussianBlur stdDeviation="1" in="shadowOffsetOuter1" result="shadowBlurOuter1"></feGaussianBlur>
            <feColorMatrix values="0 0 0 0 0   0 0 0 0 0   0 0 0 0 0  0 0 0 0.5 0" type="matrix" in="shadowBlurOuter1"></feColorMatrix>
        </filter>
        <filter x="-7.5%" y="-11.4%" width="115.0%" height="122.8%" filterUnits="objectBoundingBox" id="filter-6">
            <feGaussianBlur stdDeviation="0.5" in="SourceAlpha" result="shadowBlurInner1"></feGaussianBlur>
            <feOffset dx="0" dy="1" in="shadowBlurInner1" result="shadowOffsetInner1"></feOffset>
            <feComposite in="shadowOffsetInner1" in2="SourceAlpha" operator="arithmetic" k2="-1" k3="1" result="shadowInnerInner1"></feComposite>
            <feColorMatrix values="0 0 0 0 0   0 0 0 0 0   0 0 0 0 0  0 0 0 0.5 0" type="matrix" in="shadowInnerInner1"></feColorMatrix>
        </filter>
    </defs>
    <g id="Page-1" stroke="none" stroke-width="1" fill="none" fill-rule="evenodd">
        <g id="Group-25" transform="translate(4.000000, 4.000000)">
            <g id="Oval">
                <use fill="black" fill-opacity="1" filter="url(#filter-2)" xlink:href="#path-1"></use>
                <use fill="#FEFEFE" fill-rule="evenodd" xlink:href="#path-1"></use>
                <use fill="black" fill-opacity="1" filter="url(#filter-3)" xlink:href="#path-1"></use>
                <use stroke="#FFFFFF" stroke-width="1" xlink:href="#path-1"></use>
            </g>
            <g id="建设" transform="translate(11.000000, 17.000000)"></g>
            <g id="Shape" fill-rule="nonzero">
                <use fill="black" fill-opacity="1" filter="url(#filter-5)" xlink:href="#path-4"></use>
                <use fill="#D0021B" fill-rule="evenodd" xlink:href="#path-4"></use>
                <use fill="black" fill-opacity="1" filter="url(#filter-6)" xlink:href="#path-4"></use>
            </g>
        </g>
    </g>
</svg>