<svg xmlns="http://www.w3.org/2000/svg" width="246.174" height="497" viewBox="0 0 246.174 497"><path fill="#FA7A29" d="M224.89 323l-60-167c-.668 0-1-.333-1-1 0-3.333 1.666-5 5-5 2 0 3.332 1.333 4 4l41 107c3.334 6.667 10.668 10 22 10 4 0 6.832-2.833 8.5-8.5 1.666-5.667 2.166-9.5 1.5-11.5l-41-106c-2-12-8.334-23-19-33-10.668-10-22.668-15-36-15h-53c-13.334 0-25.667 5-37 15s-18 21-20 33l-39 106c-1.333 2-1.167 5.833.5 11.5s4.833 8.5 9.5 8.5c12.667 0 20-3.333 22-10l39-108c.669-2 2.336-3 5-3 2.667 0 4 1.667 4 5v1l-59 167v10c0 2 1.5 4.167 4.5 6.5s5.5 3.5 7.5 3.5h38v134c0 5.333 2 10 6 14s8.833 6 14.5 6 10.5-2 14.5-6 6-8.667 6-14V343c0-.667 1.832-1.167 5.5-1.5 3.666-.333 7.167-.333 10.5 0 3.332.333 5 .833 5 1.5v133c0 5.333 2 10.167 6 14.5s8.666 6.5 14 6.5 10.168-2.167 14.5-6.5 6.5-9.167 6.5-14.5V343h39c2 0 4.332-1.167 7-3.5 2.666-2.333 4-4.5 4-6.5v-10zM79.885 42.5c0 11.667 4.167 21.667 12.5 30s18.333 12.5 30 12.5c11.666 0 21.5-4.167 29.5-12.5s12-18.333 12-30-4-21.667-12-30S134.056 0 122.386 0s-21.668 4.167-30 12.5c-8.334 8.333-12.501 18.333-12.501 30z"/></svg>