<svg class="icon" viewBox="0 0 1024 1024" xmlns="http://www.w3.org/2000/svg" width="128" height="128"><defs><style>*,html{user-select:text!important}</style></defs><path d="M786.581 762.219h1.003c30.699-.278 58.453-12.758 78.699-32.982 20.202-20.501 32.704-48.469 32.704-79.445 0-27.733-9.75-52.97-26.006-72.96-17.002-19.499-40.448-33.493-67.413-37.952-17.003-3.03-28.992-18.027-28.992-34.752 0-66.965-27.008-127.659-70.955-171.115-43.968-43.989-104.426-71.189-171.37-71.189-49.472 0-95.19 14.485-133.44 39.68-39.211 26.005-70.443 63.232-89.43 106.944-5.504 12.992-17.984 20.97-31.466 21.227-43.243 2.752-81.963 22.25-110.187 52.224-27.733 29.461-45.205 69.717-45.205 113.92 0 45.952 18.986 87.68 48.96 117.674 29.973 29.995 71.936 48.726 117.44 48.726H786.58zm129.43 16.725c-33.003 33.237-78.464 53.205-128.427 53.717H290.923c-64.982 0-124.438-26.453-167.403-69.44h.47C80.79 720.235 54.527 660.78 54.527 595.82c0-62.699 24.256-119.915 63.957-162.39 36.011-37.461 83.968-63.701 137.408-71.445 24.47-48.47 61.483-89.45 106.667-118.933 49.237-32.704 108.693-51.691 171.67-51.691 86.165 0 164.373 35.221 220.842 91.69 50.71 50.433 84.459 118.166 90.453 193.857 31.958 10.986 59.968 29.994 80.704 55.21 27.2 31.723 43.2 72.939 43.2 117.696.022 50.411-20.714 96.406-53.418 129.131z" fill="#FAD860"/></svg>