<svg class="icon" viewBox="0 0 1024 1024" xmlns="http://www.w3.org/2000/svg" width="128" height="128"><defs><style>*,html{user-select:text!important}</style></defs><path d="M511.765 283.435c63.126 0 120.662 25.514 161.856 66.944 41.195 41.194 67.158 98.752 67.158 162.09 0 63.126-25.984 120.214-67.158 161.387-41.194 41.43-98.73 66.944-161.856 66.944-62.89 0-120.213-25.493-161.621-66.944-41.43-41.195-66.944-98.261-66.944-161.387 0-63.338 25.493-120.896 66.944-162.09 41.408-41.43 98.73-66.944 161.621-66.944zm-180.224 4.053l-64.917-65.173c-12.523-12.544-32.235-12.544-44.779 0-12.309 12.074-12.309 32.256 0 44.33l65.366 65.366c12.074 12.544 32.234 12.544 44.309 0 12.565-12.31 12.565-32.47.021-44.523zm-106.09 192.96c17.429 0 31.765 14.08 31.765 31.552 0 17.43-14.336 31.765-31.765 31.765h-92.246c-17.472 0-31.338-14.336-31.338-31.765 0-17.472 13.845-31.552 31.338-31.552h92.246zm61.781 211.755l-65.365 65.173c-12.31 12.544-12.31 32.235 0 44.779 12.544 12.074 32.256 12.074 44.778 0l64.918-65.387c12.33-12.288 12.33-32.213 0-44.544-12.096-12.31-32.256-12.31-44.331-.021zm192.981 106.133c0-17.237 14.336-31.339 31.552-31.339 17.686 0 31.552 14.102 31.552 31.339v92.224c0 17.237-13.866 31.552-31.552 31.552-17.237 0-31.552-14.336-31.552-31.552v-92.224zm211.776-61.59l65.366 65.387c12.074 12.075 32.256 12.075 44.544 0 12.33-12.544 12.33-32.234 0-44.778l-65.366-65.174c-12.288-12.288-32.234-12.288-44.544 0-12.096 12.352-12.096 32.278 0 44.566zm106.112-192.96c-17.45 0-31.338-14.335-31.338-31.765 0-17.472 13.866-31.552 31.338-31.552h92.203c17.472 0 31.808 14.08 31.808 31.552 0 17.43-14.336 31.766-31.808 31.766h-92.203zm-61.589-211.775l65.365-65.366c12.331-12.074 12.331-32.256 0-44.33-12.288-12.544-32.213-12.544-44.544 0l-65.365 65.173c-12.075 12.31-12.075 32.235 0 44.544 12.33 12.523 32.256 12.523 44.544-.021zM543.339 225.899c0 17.472-13.867 31.338-31.552 31.338-17.238 0-31.552-13.845-31.552-31.338V133.44c0-17.45 14.336-31.552 31.552-31.552 17.685 0 31.552 14.101 31.552 31.552v92.459zm85.525 169.024c-29.547-29.782-71.19-48.363-117.077-48.363-45.462 0-87.083 18.581-117.078 48.363-29.994 30.25-48.362 71.637-48.362 117.546 0 45.462 18.346 86.848 48.362 116.886 29.995 29.952 71.616 48.789 117.078 48.789 45.888 0 87.552-18.837 117.077-48.79 29.995-30.015 48.576-71.423 48.576-116.885 0-45.909-18.581-87.296-48.576-117.546z" fill="#FAD860"/></svg>