<svg class="icon" viewBox="0 0 1024 1024" xmlns="http://www.w3.org/2000/svg" width="128" height="128"><defs><style>*,html{user-select:text!important}</style></defs><path d="M336.47 594.219c8.49-14.998 27.754-20.139 42.986-11.414 15.232 8.939 19.947 27.99 11.648 42.987L256.789 858.624c-9.194 14.997-28.224 20.139-43.434 11.179-14.763-8.491-20.16-27.776-11.179-42.987l134.293-232.597zm-99.393 40.96c-22.826-23.296-41.194-50.368-53.738-80.15-12.096-29.354-18.347-61.354-18.347-94.72 0-33.813 6.25-65.578 18.347-94.698l.661-1.536c12.31-29.355 30.677-56.214 53.056-78.592 22.848-22.848 50.155-41.43 80.363-53.76l1.578-.896c28.672-11.414 60.011-17.899 93.12-17.899 24.619 0 48.384 4.01 71.211 10.517 23.04 6.934 44.779 17.238 64.448 30.208 19.712 12.992 37.632 28.672 52.373 46.358h.448-.448a234.11 234.11 0 0 1 37.163 59.114c6.293 12.758 19.243 19.926 32.683 18.134l6.293-.448 5.803-.896h6.037l4.907-.427v.427c22.613 0 43.882 4.501 63.381 12.544 20.139 8.298 38.485 20.629 53.717 35.84 15.659 15.445 27.755 34.026 36.246 53.717 7.85 19.499 12.544 40.981 12.544 63.616 0 22.379-4.694 43.883-12.544 63.552-8.491 20.139-20.587 38.293-36.246 53.76-12.97 12.95-27.754 23.723-43.882 31.787h-.384c-15.68 7.594-33.344 12.97-51.478 15.466-17.472 2.219-29.568 17.899-27.328 35.115 2.006 17.45 17.92 29.333 34.923 27.307 25.515-3.35 49.707-10.752 72.085-21.483v-.47c22.635-11.178 43.456-25.514 60.694-43.413 21.034-21.034 38.058-45.696 49.685-73.898 11.413-27.307 17.685-57.088 17.685-87.744 0-30.443-6.272-60.459-17.685-87.318-11.627-28.202-28.65-53.525-49.685-74.56-20.822-20.821-46.358-37.802-74.304-49.45-27.115-11.179-56.662-17.472-87.339-17.472h-.661l-5.376.448h-1.792c-10.283-19.478-23.062-37.632-37.163-54.166v.448c-19.243-22.826-41.195-42.325-65.344-58.218-25.088-16.576-52.395-29.547-81.728-38.059-28.181-8.725-58.432-13.44-88.875-13.44A306.463 306.463 0 0 0 294.87 173.12l-1.344.448c-38.037 15.68-72.512 38.741-100.736 67.157-28.202 27.776-50.581 61.782-66.709 99.414l-.683 1.344c-14.976 36.714-23.488 77.013-23.488 118.869s8.491 81.728 23.488 118.677v-.256c15.68 38.272 38.742 72.512 67.392 100.736 12.075 12.331 32.256 12.331 44.331 0 12.501-12.096 12.501-32.234-.043-44.33zm240.875-40.96L343.189 826.816c-8.49 15.21-3.584 34.475 11.648 42.987 15.232 8.96 34.475 3.818 42.987-11.179l134.357-232.832c8.939-14.997 3.563-34.048-11.221-42.987-15.232-8.746-34.475-3.605-43.008 11.414zm141.077 0c8.939-14.998 28.182-20.139 42.987-11.414 14.976 8.939 20.139 27.99 11.627 42.987L539.072 858.624c-8.704 14.997-27.968 20.139-42.965 11.179-14.998-8.491-19.926-27.776-11.414-42.987L619.03 594.219z" fill="#FAD860"/></svg>