<svg class="icon" viewBox="0 0 1024 1024" xmlns="http://www.w3.org/2000/svg" width="48" height="48"><defs><style>*,html{user-select:text!important}</style></defs><path d="M694.857 182.857q0 14.857-10.857 25.714t-25.714 10.858h-73.143V804.57h73.143q14.857 0 25.714 10.858t10.857 25.714T684 866.857l-146.286 146.286Q526.857 1024 512 1024t-25.714-10.857L340 866.857Q329.143 856 329.143 841.143T340 815.429t25.714-10.858h73.143V219.43h-73.143q-14.857 0-25.714-10.858t-10.857-25.714T340 157.143L486.286 10.857Q497.143 0 512 0t25.714 10.857L684 157.143q10.857 10.857 10.857 25.714z" fill="#fff"/></svg>