<?xml version="1.0" encoding="UTF-8"?>
<svg width="1345px" height="102px" viewBox="0 0 1345 102" version="1.1" xmlns="http://www.w3.org/2000/svg" xmlns:xlink="http://www.w3.org/1999/xlink">
    <!-- Generator: Sketch 46.2 (44496) - http://www.bohemiancoding.com/sketch -->
    <title>Group 5</title>
    <desc>Created with Sketch.</desc>
    <defs>
        <linearGradient x1="3.061617e-15%" y1="50%" x2="100%" y2="50%" id="linearGradient-1">
            <stop stop-color="#57B6C4" stop-opacity="0" offset="0%"></stop>
            <stop stop-color="#2DFFFF" offset="100%"></stop>
        </linearGradient>
        <linearGradient x1="50%" y1="0%" x2="50%" y2="100%" id="linearGradient-2">
            <stop stop-color="#FFFFFF" offset="0%"></stop>
            <stop stop-color="#DEFCF8" offset="100%"></stop>
        </linearGradient>
        <path d="M297.46818,41.84 L297.990538,48.536 L322.542538,48.536 L324.82818,41.84 L337.71618,41.84 L335.502538,48.536 L344.574538,48.536 L343.696364,54.944 L275.008364,54.944 L275.886538,48.536 L285.030538,48.536 L284.58018,41.84 L297.46818,41.84 Z M339.920964,86.696 L339.032924,93.176 L269.192924,93.176 L270.080964,86.696 L339.920964,86.696 Z M339.397352,67.4 L338.519179,73.808 L275.447179,73.808 L276.325352,67.4 L339.397352,67.4 Z M383.042572,43.136 L394.418572,43.136 L387.689196,92.24 L376.313196,92.24 L383.042572,43.136 Z M407.146844,42.2 L418.522844,42.2 L411.536924,93.176 L400.160924,93.176 L407.146844,42.2 Z M360.058844,42.2 L371.362844,42.2 L361.064924,93.176 L349.760924,93.176 L360.058844,42.2 Z M350.166075,79.712 L342.534075,79.712 L348.254252,51.632 L355.958252,51.632 L350.166075,79.712 Z M371.078252,51.632 L378.782252,51.632 L376.806075,79.712 L369.174075,79.712 L371.078252,51.632 Z M395.054252,51.632 L402.686252,51.632 L400.782075,79.712 L393.078075,79.712 L395.054252,51.632 Z M448.275648,41.552 L447.436943,47.672 L439.847342,47.888 L439.097441,53.36 L447.233441,53.36 L446.3454,59.84 L438.2094,59.84 L433.650791,93.104 L420.474791,93.104 L425.0334,59.84 L416.8254,59.84 L417.713441,53.36 L425.921441,53.36 L426.622006,48.248 L419.042272,48.392 L419.880977,42.272 L448.275648,41.552 Z M453.509161,55.376 L466.397161,55.376 L467.01233,60.344 L470.82833,60.344 L474.909189,51.056 L462.741189,51.056 L461.24677,54.08 L448.28677,54.08 L454.591914,41.696 L467.479914,41.696 L466.005229,44.576 L490.413229,44.576 L481.244289,66.824 L446.828289,66.824 L447.71633,60.344 L454.12433,60.344 L453.509161,55.376 Z M450.225264,81.44 L463.113264,81.44 L463.780699,86.552 L467.308699,86.552 L471.297823,77.408 L459.201823,77.408 L457.910607,80 L444.950607,80 L451.216283,67.904 L464.104283,67.904 L462.537864,70.928 L486.801864,70.928 L477.508658,93.032 L443.236658,93.032 L444.124699,86.552 L450.892699,86.552 L450.225264,81.44 Z M444.845121,61.856 L441.714791,93.104 L436.242791,93.104 L439.229121,61.856 L444.845121,61.856 Z M423.389121,61.856 L417.882791,93.104 L412.410791,93.104 L417.917121,61.856 L423.389121,61.856 Z M527.200146,47.24 L532.672146,47.24 L533.998047,41.768 L547.174047,41.768 L545.848146,47.24 L562.120146,47.24 L556.860971,85.616 L554.404658,93.032 L540.868658,93.032 L544.039111,84.608 L548.272105,53.72 L544.312105,53.72 L534.892658,93.032 L521.716658,93.032 L531.136105,53.72 L526.312105,53.72 L527.200146,47.24 Z M524.373666,59.984 L523.485625,66.464 L506.061625,66.464 L500.255097,86.768 L506.951097,86.768 L507.81785,73.088 L520.63385,73.088 L519.690791,93.104 L484.698791,93.104 L493.101625,66.464 L488.061625,66.464 L488.949666,59.984 L524.373666,59.984 Z M525.654837,43.28 L524.766797,49.76 L491.430797,49.76 L492.318837,43.28 L525.654837,43.28 Z M591.464391,50.624 L592.678047,41.768 L605.638047,41.768 L604.424391,50.624 L632.504391,50.624 L631.616351,57.104 L605.624351,57.104 L625.902811,89.864 L625.458791,93.104 L611.490791,93.104 L595.714422,66.896 L572.754791,93.104 L558.786791,93.104 L559.230811,89.864 L588.488351,57.104 L562.496351,57.104 L563.384391,50.624 L591.464391,50.624 Z M706.150824,45.44 L705.262783,51.92 L702.886783,51.92 L700.222661,71.36 L692.503411,79.352 L700.000678,89.792 L699.556658,93.032 L686.092658,93.032 L683.271084,88.928 L679.252658,93.032 L666.652658,93.032 L667.096678,89.792 L676.797544,79.424 L670.863465,70.712 L672.452071,59.12 L685.052071,59.12 L683.92722,67.328 L685.66987,69.848 L687.775751,67.616 L689.926783,51.92 L686.542783,51.92 L684.712882,57.392 L671.824882,57.392 L677.153781,41.624 L690.113781,41.624 L688.798824,45.44 L706.150824,45.44 Z M647.300807,69.272 L647.024528,71.288 L667.616528,71.288 L665.958852,83.384 L658.612699,86.552 L665.319343,90.152 L664.914791,93.104 L650.514791,93.104 L647.521469,91.304 L643.458791,93.104 L629.058791,93.104 L629.54228,89.576 L638.387636,85.976 L632.793523,82.664 L633.553291,77.12 L630.745291,77.12 L631.544528,71.288 L634.352528,71.288 L634.628807,69.272 L647.300807,69.272 Z M647.256977,42.272 L660.072977,42.272 L659.017195,49.976 L671.257195,49.976 L670.379022,56.384 L658.139022,56.384 L656.510947,68.264 L643.694947,68.264 L645.323022,56.384 L633.803022,56.384 L634.681195,49.976 L646.201195,49.976 L647.256977,42.272 Z M668.750947,68.264 L659.462947,68.264 L659.535546,57.752 L668.895546,57.752 L668.750947,68.264 Z M634.911546,57.752 L643.551546,57.752 L640.742947,68.264 L632.174947,68.264 L634.911546,57.752 Z M669.984936,48.752 L660.696936,48.752 L662.952977,42.272 L672.240977,42.272 L669.984936,48.752 Z M635.808977,42.272 L644.376977,42.272 L644.856936,48.752 L636.288936,48.752 L635.808977,42.272 Z M654.145291,77.12 L646.225291,77.12 L645.879942,79.64 L649.295397,81.512 L653.799942,79.64 L654.145291,77.12 Z M740.794899,75.824 L750.514899,75.824 L751.185864,70.928 L739.593864,70.928 L736.112924,93.176 L723.152924,93.176 L731.225781,41.624 L778.745781,41.624 L776.407274,58.688 L741.487274,58.688 L740.544037,64.52 L752.064037,64.52 L752.695533,59.912 L765.655533,59.912 L765.024037,64.52 L775.824037,64.52 L774.945864,70.928 L764.145864,70.928 L763.474899,75.824 L773.266899,75.824 L770.898791,93.104 L738.426791,93.104 L740.794899,75.824 Z M725.728542,69.128 L724.840501,75.608 L720.297564,76.184 L719.014838,85.544 L715.684658,93.032 L702.724658,93.032 L706.025237,85.76 L707.100753,77.912 L702.341816,78.488 L703.229857,72.008 L707.988794,71.432 L710.22863,55.088 L705.54863,55.088 L706.436671,48.608 L711.116671,48.608 L712.073781,41.624 L725.033781,41.624 L724.076671,48.608 L728.540671,48.608 L727.65263,55.088 L723.18863,55.088 L721.185605,69.704 L725.728542,69.128 Z M764.901448,52.28 L765.483608,48.032 L743.163608,48.032 L742.509448,52.28 L764.901448,52.28 Z M751.063629,87.056 L759.919629,87.056 L760.630061,81.872 L751.774061,81.872 L751.063629,87.056 Z M781.452957,45.512 L811.908957,45.512 L812.431914,41.696 L825.319914,41.696 L824.796957,45.512 L849.204957,45.512 L848.326783,51.92 L793.534783,51.92 L786.450791,93.104 L773.490791,93.104 L781.452957,45.512 Z M843.364699,86.552 L842.476658,93.032 L789.772658,93.032 L790.660699,86.552 L843.364699,86.552 Z M834.166224,55.952 L846.406224,55.952 L840.188985,83.456 L827.948985,83.456 L834.166224,55.952 Z M824.492985,83.456 L812.252985,83.456 L813.574224,55.952 L825.742224,55.952 L824.492985,83.456 Z M806.924985,83.456 L794.684985,83.456 L796.006224,55.952 L808.174224,55.952 L806.924985,83.456 Z M887.456924,93.176 L874.496924,93.176 L876.046061,81.872 L861.502061,81.872 L859.664924,93.176 L846.416924,93.176 L854.989774,42.704 L920.725774,42.704 L914.756167,86.264 L912.584924,93.176 L899.480924,93.176 L901.835636,85.976 L902.398061,81.872 L889.006061,81.872 L887.456924,93.176 Z M862.606102,75.392 L876.934102,75.392 L878.305632,65.384 L864.265632,65.384 L862.606102,75.392 Z M889.894102,75.392 L903.286102,75.392 L904.657632,65.384 L891.265632,65.384 L889.894102,75.392 Z M865.369673,58.904 L879.193673,58.904 L880.525734,49.184 L866.989734,49.184 L865.369673,58.904 Z M906.877734,49.184 L893.485734,49.184 L892.153673,58.904 L905.545673,58.904 L906.877734,49.184 Z M947.685285,78.2 L919.389285,78.2 L920.277325,71.72 L948.573325,71.72 L951.701202,48.896 L925.205202,48.896 L926.093243,42.416 L992.045243,42.416 L991.157202,48.896 L964.661202,48.896 L961.533325,71.72 L989.973325,71.72 L989.085285,78.2 L960.645285,78.2 L958.592924,93.176 L945.632924,93.176 L947.685285,78.2 Z M982.22908,68.336 L970.06108,68.336 L976.78758,52.352 L989.02758,52.352 L982.22908,68.336 Z M926.38758,52.352 L938.62758,52.352 L940.97308,68.336 L928.80508,68.336 L926.38758,52.352 Z M1018.11618,41.84 L1011.37796,55.808 L1047.52196,55.808 L1045.67137,43.568 L1058.77537,43.568 L1061.76379,62.216 L994.947785,62.216 L1004.58018,41.84 L1018.11618,41.84 Z M995.9211,65.096 L1060.0011,65.096 L1056.20226,92.816 L992.122259,92.816 L995.9211,65.096 Z M1007.92106,71.576 L1005.8983,86.336 L1044.2023,86.336 L1046.22506,71.576 L1007.92106,71.576 Z" id="path-3"></path>
        <filter x="-0.3%" y="-3.9%" width="101.0%" height="115.5%" filterUnits="objectBoundingBox" id="filter-4">
            <feOffset dx="4" dy="4" in="SourceAlpha" result="shadowOffsetOuter1"></feOffset>
            <feColorMatrix values="0 0 0 0 0   0 0 0 0 0   0 0 0 0 0  0 0 0 1 0" type="matrix" in="shadowOffsetOuter1"></feColorMatrix>
        </filter>
        <filter x="-0.2%" y="-2.9%" width="100.9%" height="113.6%" filterUnits="objectBoundingBox" id="filter-5">
            <feGaussianBlur stdDeviation="1.5" in="SourceAlpha" result="shadowBlurInner1"></feGaussianBlur>
            <feOffset dx="0" dy="0" in="shadowBlurInner1" result="shadowOffsetInner1"></feOffset>
            <feComposite in="shadowOffsetInner1" in2="SourceAlpha" operator="arithmetic" k2="-1" k3="1" result="shadowInnerInner1"></feComposite>
            <feColorMatrix values="0 0 0 0 0.947278613   0 0 0 0 1   0 0 0 0 0.690196078  0 0 0 1 0" type="matrix" in="shadowInnerInner1"></feColorMatrix>
        </filter>
        <path d="M475.009199,0.191910864 L475.357276,4.65383844 L491.717677,4.65383844 L493.240731,0.191910864 L501.828742,0.191910864 L500.353666,4.65383844 L506.398858,4.65383844 L505.81368,8.92385515 L460.04294,8.92385515 L460.628117,4.65383844 L466.721287,4.65383844 L466.421188,0.191910864 L475.009199,0.191910864 Z M503.297916,30.0820279 L502.706164,34.4000223 L456.167779,34.4000223 L456.759531,30.0820279 L503.297916,30.0820279 Z M502.949003,17.224 L502.363826,21.4940167 L460.335347,21.4940167 L460.920524,17.224 L502.949003,17.224 Z M532.032308,1.05550975 L539.612787,1.05550975 L535.128619,33.776312 L527.54814,33.776312 L532.032308,1.05550975 Z M548.094363,0.431799443 L555.674842,0.431799443 L551.019723,34.4000223 L543.439244,34.4000223 L548.094363,0.431799443 Z M516.716936,0.431799443 L524.249438,0.431799443 L517.387345,34.4000223 L509.854843,34.4000223 L516.716936,0.431799443 Z M510.124819,25.4281894 L505.039181,25.4281894 L508.850861,6.71688022 L513.984477,6.71688022 L510.124819,25.4281894 Z M524.059797,6.71688022 L529.193413,6.71688022 L527.876574,25.4281894 L522.790936,25.4281894 L524.059797,6.71688022 Z M540.036377,6.71688022 L545.122015,6.71688022 L543.853153,25.4281894 L538.719537,25.4281894 L540.036377,6.71688022 Z M555.936926,3.07057382 L575.511834,3.07057382 L575.433133,0.143933148 L584.069122,0.143933148 L584.147822,3.07057382 L603.434864,3.07057382 L602.843112,7.38856825 L583.939892,7.38856825 L583.37444,11.5146518 L600.646417,11.5146518 L598.404334,27.8750529 L596.233222,32.8647354 L587.4533,32.8647354 L589.941248,26.9634763 L591.466654,15.8326462 L582.782687,15.8326462 L580.231577,34.448 L571.595588,34.448 L574.146698,15.8326462 L565.462732,15.8326462 L563.128598,32.8647354 L554.492609,32.8647354 L557.418495,11.5146518 L574.738451,11.5146518 L575.303903,7.38856825 L555.345173,7.38856825 L555.936926,3.07057382 Z M637.847837,6.47699164 L603.54377,6.47699164 L604.135522,2.15899721 L623.470542,2.15899721 L623.766418,0 L632.402407,0 L632.106531,2.15899721 L651.44155,2.15899721 L650.849798,6.47699164 L646.435848,6.47699164 L644.772366,18.6153538 L632.857156,23.9888579 L647.389382,31.3774262 L646.96858,34.448 L636.509438,34.448 L623.956731,28.0189861 L609.689895,34.448 L599.230753,34.448 L599.651554,31.3774262 L616.160911,23.9888579 L605.718506,18.6153538 L607.112411,8.44407799 L615.7484,8.44407799 L614.880497,14.7771365 L625.05476,20.0067075 L636.710357,14.7771365 L637.847837,6.47699164 Z M675.736683,13.5776936 L677.584265,0.0959554318 L686.220254,0.0959554318 L684.826349,10.2672312 L699.114145,5.08563788 L698.417192,10.1712758 L684.129396,15.3528691 L682.137163,29.890117 L695.618901,29.890117 L695.027149,34.2081114 L672.909422,34.2081114 L675.03973,18.6633315 L664.486386,22.5015487 L665.189913,17.3679331 L675.736683,13.5776936 Z M667.988722,0.0959554318 L662.537153,9.0677883 L664.792106,9.0677883 L661.327067,34.3520446 L652.691078,34.3520446 L655.347389,14.9690474 L650.213773,14.9690474 L659.256778,0.0959554318 L667.988722,0.0959554318 Z M747.519955,0.911576602 L742.996337,33.9202451 L720.446811,33.9202451 L724.970428,0.911576602 L747.519955,0.911576602 Z M723.259051,0.0959554318 L722.706748,4.12608357 L715.82621,4.27001671 L715.293633,8.1562117 L722.47714,8.25216713 L721.944563,12.1383621 L714.747906,12.1383621 L711.710244,34.3040669 L703.170211,34.3040669 L706.207872,12.1383621 L698.771326,12.1383621 L699.363079,7.82036769 L706.7799,7.96430084 L707.259877,4.46192758 L700.235405,4.60586072 L700.787707,0.575732591 L723.259051,0.0959554318 Z M735.000078,29.6022507 L738.340191,5.22957103 L733.014665,5.22957103 L729.674552,29.6022507 L735.000078,29.6022507 Z M704.811179,13.5776936 L701.29908,34.3040669 L695.82962,34.3040669 L699.341719,13.5776936 L704.811179,13.5776936 Z M721.17158,13.5776936 L719.050834,34.3040669 L713.581375,34.3040669 L715.70212,13.5776936 L721.17158,13.5776936 Z M757.78834,15.2569136 L755.389454,15.2569136 L751.867592,34.3040669 L743.71138,34.3040669 L748.627665,7.53250139 L747.140356,7.53250139 L747.732109,3.21450696 L753.729323,3.21450696 L754.163275,0.0479777159 L762.799264,0.0479777159 L762.365312,3.21450696 L768.266571,3.21450696 L767.674819,7.53250139 L756.831855,7.53250139 L756.221095,10.9389192 L766.680237,10.9389192 L764.023927,30.3219164 L762.662578,34.3040669 L753.930634,34.3040669 L755.822407,29.6022507 L757.78834,15.2569136 Z M776.712002,14.0574708 L774.529094,29.9860724 L778.6072,29.9860724 L778.015447,34.3040669 L765.34933,34.3040669 L768.682868,9.9793649 L794.593505,9.25969916 L794.001753,13.5776936 L788.704479,13.7216267 L789.160944,19.1431086 L793.390275,18.0396212 L792.798523,22.3576156 L789.513643,23.2212145 L790.489653,34.3040669 L781.421865,34.3040669 L780.035615,13.9615153 L776.712002,14.0574708 Z M779.639442,0.0479777159 L778.944641,1.96708635 L795.592909,1.96708635 L795.001156,6.28508078 L777.345357,6.28508078 L776.34687,9.01981058 L767.902792,9.01981058 L771.195364,0.0479777159 L779.639442,0.0479777159 Z M824.109563,10.9389192 L821.387502,30.8016936 L820.283815,34.3040669 L812.751314,34.3040669 L813.981879,30.225961 L816.020137,15.3528691 L813.909117,15.3528691 L810.064561,34.3040669 L802.388127,34.3040669 L807.738164,7.8683454 L806.202877,7.8683454 L806.794629,3.55035097 L811.832289,3.55035097 L812.312266,0.0479777159 L820.708367,0.0479777159 L820.22839,3.55035097 L825.170094,3.55035097 L824.578342,7.8683454 L815.414598,7.8683454 L814.801886,10.9389192 L824.109563,10.9389192 Z M841.007082,19.6228858 L840.41533,23.9408802 L837.008912,23.9408802 L836.239634,29.554273 L834.197353,34.3040669 L825.993163,34.3040669 L828.389061,29.0744958 L829.092589,23.9408802 L823.479196,23.9408802 L824.070948,19.6228858 L830.068163,19.6228858 L832.629671,14.5852256 L824.761326,14.5852256 L825.346503,10.3152089 L841.898815,10.3152089 L841.438563,13.673649 L838.32033,19.6228858 L841.007082,19.6228858 Z M843.360941,2.44686351 L842.762614,6.81283565 L833.502915,6.81283565 L832.907975,9.40363231 L825.135585,9.40363231 L827.377269,0.0479777159 L835.149659,0.0479777159 L834.581019,2.44686351 L843.360941,2.44686351 Z M795.280931,21.3980613 L803.437143,21.3980613 L799.70795,34.2560891 L791.551738,34.2560891 L795.280931,21.3980613 Z M797.119269,8.68396657 L797.096755,0.0959554318 L805.204989,0.0959554318 L805.227503,8.68396657 L797.119269,8.68396657 Z M795.624785,19.2390641 L795.65025,10.6510529 L803.758484,10.6510529 L803.733019,19.2390641 L795.624785,19.2390641 Z M852.321695,12.330273 L851.977841,14.4892702 L889.064615,14.4892702 L886.934307,30.0340501 L885.561761,34.448 L876.733861,34.448 L878.350918,29.6502284 L879.836874,18.8072646 L851.338111,18.8072646 L849.050719,34.448 L840.174842,34.448 L845.394495,0.911576602 L889.581972,0.911576602 L888.017115,12.330273 L852.321695,12.330273 Z M853.242635,21.0142396 L876.751715,21.0142396 L875.246035,32.0011365 L851.736954,32.0011365 L853.242635,21.0142396 Z M853.517632,4.65383844 L853.04423,8.10823398 L879.959729,8.10823398 L880.433131,4.65383844 L853.517632,4.65383844 Z M860.615183,25.332234 L860.286432,27.7311198 L867.866911,27.7311198 L868.195662,25.332234 L860.615183,25.332234 Z" id="path-6"></path>
        <filter x="-0.5%" y="-5.8%" width="101.8%" height="123.2%" filterUnits="objectBoundingBox" id="filter-7">
            <feOffset dx="4" dy="4" in="SourceAlpha" result="shadowOffsetOuter1"></feOffset>
            <feColorMatrix values="0 0 0 0 0   0 0 0 0 0   0 0 0 0 0  0 0 0 1 0" type="matrix" in="shadowOffsetOuter1"></feColorMatrix>
        </filter>
        <filter x="-0.3%" y="-4.4%" width="101.6%" height="120.3%" filterUnits="objectBoundingBox" id="filter-8">
            <feGaussianBlur stdDeviation="1.5" in="SourceAlpha" result="shadowBlurInner1"></feGaussianBlur>
            <feOffset dx="0" dy="0" in="shadowBlurInner1" result="shadowOffsetInner1"></feOffset>
            <feComposite in="shadowOffsetInner1" in2="SourceAlpha" operator="arithmetic" k2="-1" k3="1" result="shadowInnerInner1"></feComposite>
            <feColorMatrix values="0 0 0 0 0.947278613   0 0 0 0 1   0 0 0 0 0.690196078  0 0 0 1 0" type="matrix" in="shadowInnerInner1"></feColorMatrix>
        </filter>
    </defs>
    <g id="Page-1" stroke="none" stroke-width="1" fill="none" fill-rule="evenodd">
        <g id="Group-5">
            <polyline id="Path-4" stroke="url(#linearGradient-1)" stroke-width="5" opacity="0.4" points="257.510177 101.153839 261 80 0.061912696 80"></polyline>
            <polyline id="Path-4" stroke="url(#linearGradient-1)" stroke-width="5" opacity="0.4" points="0.061912696 70.1538387 261.622436 70.1538387 265 49"></polyline>
            <polyline id="Path-4" stroke="url(#linearGradient-1)" stroke-width="5" opacity="0.4" transform="translate(1214.469044, 58.423081) scale(-1, -1) translate(-1214.469044, -58.423081) " points="1341.44826 69 1344.93809 47.8461613 1084 47.8461613"></polyline>
            <polyline id="Path-4" stroke="url(#linearGradient-1)" stroke-width="5" opacity="0.4" transform="translate(1212.469044, 89.423081) scale(-1, -1) translate(-1212.469044, -89.423081) " points="1080 100 1341.56052 100 1344.93809 78.8461613"></polyline>
            <g id="兰州移动大数据应用平台">
                <use fill="black" fill-opacity="1" filter="url(#filter-4)" xlink:href="#path-3"></use>
                <use fill="url(#linearGradient-2)" fill-rule="evenodd" xlink:href="#path-3"></use>
                <use fill="black" fill-opacity="1" filter="url(#filter-5)" xlink:href="#path-3"></use>
            </g>
            <g id="兰州市文化和旅游局">
                <use fill="black" fill-opacity="1" filter="url(#filter-7)" xlink:href="#path-6"></use>
                <use fill="url(#linearGradient-2)" fill-rule="evenodd" xlink:href="#path-6"></use>
                <use fill="black" fill-opacity="1" filter="url(#filter-8)" xlink:href="#path-6"></use>
            </g>
        </g>
    </g>
</svg>