<svg class="icon" viewBox="0 0 1024 1024" xmlns="http://www.w3.org/2000/svg" width="128" height="128"><defs><style>*,html{user-select:text!important}</style></defs><path d="M415.744 251.115c12.523 12.522 12.523 32.768 0 45.29-12.31 12.736-32.79 12.736-45.056 0l-66.453-66.218c-12.715-12.502-12.715-32.982 0-45.27 12.309-12.309 32.789-12.309 45.077 0l66.432 66.198zm-91.947 79.872c-87.146 0-166.122 35.264-222.997 91.946C43.904 480.277 8.405 559.02 8.405 646.187c0 87.125 35.52 166.336 92.395 222.997 56.875 57.088 135.85 92.373 222.997 92.373h285.824c63.915 0 122.411-25.92 164.288-68.032 42.091-42.133 68.032-100.373 68.032-164.757 0-49.579-15.466-95.339-41.877-133.12 8.427-13.867 14.784-28.459 19.797-44.117 7.51-22.55 11.371-47.104 11.371-71.702 0-64.17-25.963-122.432-67.797-164.309h-.448c-41.878-42.304-100.374-68.48-164.331-68.48-42.283 0-82.581 11.605-116.928 31.85l-2.283 1.387c-26.837 16.15-50.048 37.526-68.714 63.04-27.542-8.234-56.896-12.33-86.934-12.33zm148.608 36.842c11.606-12.501 24.832-23.637 39.83-32.768l1.813-.896c25.045-14.57 53.717-22.976 84.63-22.976 46.677 0 88.789 18.88 119.04 49.366h.213c30.506 30.485 49.173 72.576 49.173 119.232 0 18.197-2.71 35.498-8.213 51.904-1.344 4.97-3.371 9.77-4.992 14.549-40.043-31.168-90.134-49.835-144.256-49.835h-8.214c-25.45-46.656-62.336-86.229-106.496-114.922-7.274-4.758-14.57-9.323-22.528-13.654zm417.558 143.83c-17.75 0-32.342-14.336-32.342-31.851 0-17.75 14.592-32.32 32.342-32.32h93.76c17.536 0 31.872 14.57 31.872 32.32 0 17.515-14.336 31.85-31.872 31.85h-93.76zm-62.806-215.04c-12.501 12.501-32.746 12.501-45.29 0s-12.544-32.982 0-45.504l66.453-66.219c12.501-12.31 32.747-12.31 45.248 0a31.557 31.557 0 0 1 0 45.27l-66.41 66.453zM630.784 188.992c0 17.28-14.336 31.381-32.128 31.381-17.493 0-31.83-14.101-31.83-31.381V94.784c0-17.77 14.337-32.32 31.83-32.32 17.792 0 32.128 14.57 32.128 32.32v94.208zM459.883 435.2c40.96 25.941 73.301 63.701 93.077 107.883 6.123 13.418 20.245 20.714 33.664 18.88 3.413-.214 7.51-.704 11.37-1.131 2.966 0 7.083-.448 11.627-.448 46.422 0 88.747 19.093 118.998 49.579 30.698 30.293 49.365 72.576 49.365 118.784 0 46.677-18.667 89.216-49.365 119.466-30.251 30.251-72.576 49.174-118.998 49.174H323.797c-69.162 0-131.989-28.011-177.493-73.494-45.739-45.546-73.963-108.33-73.963-177.706 0-68.95 28.224-132.224 73.963-177.302 45.504-45.952 108.33-73.962 177.493-73.962 50.326 0 97.408 14.784 136.086 40.277z" fill="#FAD860"/></svg>