<svg class="icon" viewBox="0 0 1024 1024" xmlns="http://www.w3.org/2000/svg" width="128" height="128"><defs><style>*,html{user-select:text!important}</style></defs><path d="M417.408 203.115c12.075 12.778 12.075 32.448 0 44.992a32.205 32.205 0 0 1-44.779 0l-65.365-65.814c-12.31-12.096-12.31-32.256 0-44.33 12.544-12.31 32.256-12.31 44.779 0l65.365 65.152zm-166.315 522.73c8.726-14.784 28.203-19.925 42.987-11.648 15.445 8.939 20.373 28.182 11.648 42.987L171.392 990.485c-8.747 14.742-28.01 20.139-42.987 11.158-15.018-8.704-19.968-27.755-11.648-42.966l134.336-232.832zm141.462 0L258.24 958.677c-8.725 15.211-3.37 34.24 11.413 42.966 14.998 8.981 34.475 3.584 42.987-11.158l134.315-233.301c8.746-14.784 3.584-34.048-11.414-42.987-14.976-8.256-34.24-3.136-42.986 11.648zm141.738 0c8.278-14.784 27.776-19.925 42.987-11.648 14.763 8.939 20.16 28.182 11.179 42.987L454.144 990.485c-8.725 14.742-27.776 20.139-42.987 11.158-15.018-8.704-20.394-27.755-11.648-42.966l134.784-232.832zm-381.93 40.768c-23.275-22.826-41.643-50.176-53.739-80.17h-.448.448c-12.31-29.099-19.03-60.886-19.03-94.464s6.7-65.814 19.03-94.699l.448-1.557c12.31-29.334 30.443-56.214 53.29-78.592 22.827-22.827 49.686-41.43 80.15-53.739l1.344-.661c28.437-11.648 60.01-17.899 92.907-17.899 24.853 0 48.81 3.563 71.189 10.283 23.53 6.954 44.992 17.45 65.152 30.229 19.477 13.205 37.163 28.885 52.16 46.357 14.997 17.664 27.307 37.59 37.184 59.094 5.803 12.757 19.456 20.16 32.448 18.368l6.016-.918 6.059-.448h.874l4.48-.234h.896l4.907-.235v.235c22.421 0 43.883 4.693 63.147 12.544 20.138 8.277 38.272 20.565 53.738 36.032 15.467 15.21 27.776 33.578 36.267 53.738 8.064 19.264 12.31 40.726 12.31 63.552 0 22.422-4.246 44.118-12.31 63.595-8.49 19.69-20.821 38.059-36.267 53.739-12.949 12.757-28.01 23.509-44.096 31.765-16.106 7.595-33.792 12.992-51.946 15.232-17.238 2.24-29.334 17.92-27.307 35.157 2.475 17.259 18.155 29.334 35.136 27.286 25.536-3.328 49.92-10.752 71.872-21.462h-.256c23.296-11.413 43.904-26.218 61.355-43.69 21.056-20.822 38.058-46.102 49.706-74.304 11.179-27.115 17.238-56.427 17.238-87.339 0-30.87-6.038-60.416-17.238-87.296-6.72-15.659-14.762-30.443-24.192-43.883 8.064-13.888 14.55-28.416 19.712-43.434 7.168-22.379 10.966-46.102 10.966-70.742 0-63.125-25.494-120.448-66.944-161.834-41.195-41.43-98.71-66.944-161.6-66.944-42.112 0-81.515 11.648-115.328 30.912l-2.432 1.792c-25.984 15.658-49.28 36.693-67.392 61.781-27.094-7.616-55.744-12.075-85.526-12.075-40.96 0-80.81 8.043-117.077 22.827l-1.579.661c-37.802 15.68-71.85 38.72-100.522 67.371-28.182 27.755-50.582 61.333-66.71 98.73l-.448 2.027c-15.21 36.267-23.957 76.779-23.957 118.656 0 41.622 8.747 81.92 23.957 118.678 15.659 38.037 38.507 72.298 67.136 100.714 12.096 12.544 32.043 12.544 44.8 0 12.096-12.288 12.096-32.682.022-44.736zM472.939 318.4c11.178-12.97 24.618-23.723 38.954-32.235l2.219-1.344c24.192-14.314 52.843-22.378 83.307-22.378 45.674 0 87.296 18.794 117.056 48.362 30.229 30.016 48.362 71.638 48.362 117.312 0 17.92-2.453 35.371-7.829 51.499-1.792 4.48-3.35 9.408-5.376 13.888-16.533-12.779-34.688-23.51-54.165-31.808-27.307-11.179-56.875-17.237-87.339-17.237v.234h-8.021c-10.518-18.794-22.827-37.162-37.163-53.738-18.816-22.379-41.195-42.091-65.365-58.219-8.064-5.376-16.15-9.835-24.64-14.336zM883.52 459.456c-17.45 0-31.339-14.336-31.339-31.573 0-17.472 13.867-31.552 31.339-31.552h92.224c17.472 0 31.787 14.101 31.787 31.552 0 17.237-14.315 31.573-31.787 31.573H883.52zm-61.333-211.35c-12.544 12.075-32.704 12.075-44.8 0-12.544-12.543-12.544-32.234 0-44.778l65.386-65.387c12.075-12.309 32.235-12.309 44.779 0 12.075 12.075 12.075 32.235 0 44.331l-65.365 65.835zM628.779 141.76c0 17.259-13.888 31.573-31.339 31.573-17.707 0-31.808-14.314-31.808-31.573V49.323c0-17.472 14.101-31.339 31.808-31.339 17.43 0 31.339 13.867 31.339 31.339v92.437z" fill="#FAD860"/></svg>