<svg id="图层_1" xmlns="http://www.w3.org/2000/svg" viewBox="0 0 100 100"><style>.st0{fill:#1abdd2}</style><path class="st0" d="M38.4 28.8l-2.7 1.3v3.6l2.7-1.3zM16.6 51.6l2.7-1.4v-3.5l-2.7 1.4zm0 4l2.7-1.3v-3.5l-2.7 1.3zm3.2-1.6l2.7-1.4v-3.5l-2.7 1.4zm-3.2-6.5l2.7-1.3v-3.5L16.6 44zm-3.2 9.8l2.7-1.4v-3.5l-2.7 1.4zm0-20.5l2.7-1.4v-3.6l-2.7 1.4zm0 8.3l2.7-1.4v-3.6l-2.7 1.4zm0 8.1l2.7-1.4v-3.5l-2.7 1.4zm25-32.8l-2.7 1.4v3.6l2.7-1.4zM16.6 35.1l2.7-1.3v-3.6l-2.7 1.3zM32 23.7L29.3 25v3.6l2.7-1.3zm-9 8.2l2.7-1.4v-3.6L23 28.3zm5.8-6.6l-2.6 1.4v3.6l2.6-1.4zM23 52.4l2.7-1.4v-3.5L23 48.9zm0-12.2l2.7-1.3v-3.6L23 36.6zm5.8-3v-3.6L26.2 35v3.6M32 32l-2.7 1.4V37l2.7-1.4zM19.8 50l2.7-1.4v-3.5l-2.7 1.4zm-3.2-6.5l2.7-1.4v-3.6l-2.7 1.4zm6.4.8l2.7-1.4v-3.5L23 40.8zm21.8-27.7V13l-2.7 1.4V18zM32 27.8l-2.7 1.4v3.6l2.7-1.4zm-9 8.3l2.7-1.4v-3.6L23 32.5zm-6.4 3.2l2.7-1.4v-3.6l-2.7 1.4zm3.2-1.6l2.7-1.4v-3.6l-2.7 1.4zm15.4-11.5l-2.7 1.4v3.6l2.7-1.4zM19.8 62.1l2.7-1.4v-3.4l-2.7 1.3zm-6.9-16.2l-2.7 1.4v3.5l2.7-1.4zm0 8.1l-2.7 1.4v3.5l2.7-1.4zm0-4l-2.7 1.3v3.5l2.7-1.3zm0-12.4l-2.7 1.3v3.6l2.7-1.3zm29.2-7.1l2.7-1.4v-3.6l-2.7 1.4zm-29.2 2.9l-2.7 1.4v3.6l2.7-1.4zm3.7 26.3l2.7-1.4v-3.5l-2.7 1.4zm3.2-1.6l2.7-1.4v-3.5l-2.7 1.4zm3.2-1.7l2.7-1.3v-3.5L23 52.9zM22.5 28v-3.6l-2.7 1.4v3.5zm-3.2 1.6V26l-2.7 1.4V31zm6.4-3.3v-3.5L23 24.1v3.6zm-12.8 3l-2.7 1.3v3.6l2.7-1.4zm28.7-10.5l-2.7 1.4v3.6l2.7-1.4zm-3.2 1.1v-3.6l-2.7 1.3v3.6zM32 23.1v-3.6l-2.7 1.4v3.6z"/><path class="st0" d="M10.2 53.6v16.1l16 8.2 2.6 1.3.5.3 2.7 1.4.5.2 2.7 1.4.5.2 2.7 1.4.5.3 2.7 1.3.5.3 2.7 1.3V71.2l-2.7-1.3-.5-.3-2.7-1.3-.5-.3-2.7-1.4-.5-.2-2.7-1.4-.5-.3-2.7-1.3-.5-.3zm65.6 19.2l3-1.5v-3.6l-3 1.5zm-7 3.4l3-1.5v-3.6l-3 1.5zm-7 3.4l3-1.4v-3.7l-3 1.5zm24-15.3l-3 1.4v3.7l3-1.5zm0-4.2l-3 1.5v3.6l3-1.5zm-10 4.3l3-1.4v-3.7l-3 1.5zM58.3 81.3l3-1.4v-3.6l-3 1.4zm27.5-25.4l-3 1.5V61l3-1.5zm-6.5 11l3-1.5v-3.6l-3 1.5zm7-7.6l3-1.4v-3.5l-.1-.1-2.9 1.4zm-21 14.4l3-1.4v-3.6l-3 1.4zm7-3.4l3-1.4v-3.7l-3 1.5zm-10.5 5.2l3-1.5v-3.6l-3 1.4zm7-3.5l3-1.4v-3.7l-3 1.5zm-.5-3.9v-3.5l-3 1.5v3.5zm11 3.5v3.6l1.1-.5 1.9-.9v-3.6zm-14 10.5l3-1.5V77l-3 1.5zm7-3.4l3-1.5v-3.6l-3 1.5zm-3.5 1.7l3-1.5v-3.6l-3 1.5zm17.5-8.6l3-1.4v-3.6l-3 1.4zm-14-9.1v3.4l3-1.4v-3.6zm14 4.9l3-1.4v-3.6l-3 1.4zm0-4.1l3-1.5v-3.6l-3 1.5zm-25 8V68l-3 1.5V73zm-3.5 10.6l-2.9 1.5v3.6l2.9-1.4zm.2 3.4l3-1.4v-3.7l-3 1.5zm-.2-11.7l-2.9 1.4v3.6l2.9-1.4zm28.5-18.7l2.3-1.1-2.3-1.2-.5-.2-3-1.6-.5-.2-9.1-4.7-7.2-3.8v-9.4l6.9 3.5.3.1 16.1 8.2V30.6L54.9 13.1v38.8l2.9 1.5.5.3 3 1.6.5.2 3 1.6.5.2 3 1.6.5.2 3 1.6.5.3 1 .5 2-1 4-2 3-1.4.5-.3 3-1.4z"/></svg>