<svg xmlns="http://www.w3.org/2000/svg" width="185" height="497" viewBox="0 0 185 497"><path fill="#40CAF0" d="M41 476c0 14 6.833 21 20.5 21S82 490 82 476V282h21v194c0 14 6.833 21 20.5 21s20.5-7 20.5-21V149h10v121c0 7.334 2.5 12.667 7.5 16s10.167 3.333 15.5 0 8-8.667 8-16V145c0-14-4.667-25.5-14-34.5S149 97 133 97H52c-15.333 0-27.833 4.333-37.5 13S0 130 0 144v127c0 6.667 2.667 11.333 8 14s10.5 2.667 15.5 0 7.5-7.334 7.5-14V149h10v327zm8-433.5c0 11.667 4.167 21.667 12.5 30S79.833 85 91.5 85 113 80.833 121 72.5s12-18.333 12-30-4-21.667-12-30S103.167 0 91.5 0s-21.667 4.167-30 12.5S49 30.833 49 42.5z"/></svg>