<?xml version="1.0" encoding="UTF-8"?>
<svg width="176px" height="115px" viewBox="0 0 176 115" version="1.1" xmlns="http://www.w3.org/2000/svg" xmlns:xlink="http://www.w3.org/1999/xlink">
    <!-- Generator: Sketch 46.2 (44496) - http://www.bohemiancoding.com/sketch -->
    <title>Group 20</title>
    <desc>Created with Sketch.</desc>
    <defs>
        <filter x="-4.1%" y="-8.5%" width="108.1%" height="125.4%" filterUnits="objectBoundingBox" id="filter-1">
            <feOffset dx="0" dy="2" in="SourceAlpha" result="shadowOffsetOuter1"></feOffset>
            <feGaussianBlur stdDeviation="2" in="shadowOffsetOuter1" result="shadowBlurOuter1"></feGaussianBlur>
            <feColorMatrix values="0 0 0 0 1   0 0 0 0 1   0 0 0 0 1  0 0 0 0.5 0" type="matrix" in="shadowBlurOuter1" result="shadowMatrixOuter1"></feColorMatrix>
            <feMerge>
                <feMergeNode in="shadowMatrixOuter1"></feMergeNode>
                <feMergeNode in="SourceGraphic"></feMergeNode>
            </feMerge>
        </filter>
        <linearGradient x1="-58.6507559%" y1="49.9953309%" x2="158.660273%" y2="49.9953309%" id="linearGradient-2">
            <stop stop-color="#34BDE7" offset="0%"></stop>
            <stop stop-color="#00449B" offset="100%"></stop>
        </linearGradient>
        <linearGradient x1="-8.46152544e-05%" y1="49.9993499%" x2="100.000169%" y2="49.9993499%" id="linearGradient-3">
            <stop stop-color="#FCEB00" offset="0%"></stop>
            <stop stop-color="#E60012" offset="100%"></stop>
        </linearGradient>
        <linearGradient x1="-57.0900139%" y1="49.9993496%" x2="157.069733%" y2="49.9993496%" id="linearGradient-4">
            <stop stop-color="#FCEB00" offset="0%"></stop>
            <stop stop-color="#FBE500" offset="8.75%"></stop>
            <stop stop-color="#F9D600" offset="23.02%"></stop>
            <stop stop-color="#F5BA00" offset="41.06%"></stop>
            <stop stop-color="#EF900E" offset="62.14%"></stop>
            <stop stop-color="#E95316" offset="85.5%"></stop>
            <stop stop-color="#E60819" offset="100%"></stop>
        </linearGradient>
        <linearGradient x1="-81.5093336%" y1="50.0001643%" x2="179.499646%" y2="50.0001643%" id="linearGradient-5">
            <stop stop-color="#FCEB00" offset="0%"></stop>
            <stop stop-color="#E61217" offset="100%"></stop>
        </linearGradient>
        <linearGradient x1="-263.210482%" y1="50.000519%" x2="363.210829%" y2="50.000519%" id="linearGradient-6">
            <stop stop-color="#C8D900" offset="0%"></stop>
            <stop stop-color="#82C02A" offset="100%"></stop>
        </linearGradient>
        <linearGradient x1="-0.000563048973%" y1="50.0005269%" x2="99.9997498%" y2="50.0005269%" id="linearGradient-7">
            <stop stop-color="#C8D900" offset="0%"></stop>
            <stop stop-color="#ACCE19" offset="20.97%"></stop>
            <stop stop-color="#7ABD31" offset="56.29%"></stop>
            <stop stop-color="#53B33A" offset="83.82%"></stop>
            <stop stop-color="#3FB03D" offset="100%"></stop>
        </linearGradient>
        <linearGradient x1="-209.381187%" y1="50.0022559%" x2="309.380111%" y2="50.0022559%" id="linearGradient-8">
            <stop stop-color="#34BDE7" offset="0%"></stop>
            <stop stop-color="#00449B" offset="100%"></stop>
        </linearGradient>
        <linearGradient x1="-318.58918%" y1="50.0004717%" x2="418.600879%" y2="50.0004717%" id="linearGradient-9">
            <stop stop-color="#34BDE7" offset="0%"></stop>
            <stop stop-color="#008FD5" offset="100%"></stop>
        </linearGradient>
        <linearGradient x1="-552.527833%" y1="50.0016599%" x2="652.517728%" y2="50.0016599%" id="linearGradient-10">
            <stop stop-color="#34BDE7" offset="0%"></stop>
            <stop stop-color="#00449B" offset="100%"></stop>
        </linearGradient>
        <filter x="-4.4%" y="-15.8%" width="109.4%" height="139.5%" filterUnits="objectBoundingBox" id="filter-11">
            <feOffset dx="0" dy="2" in="SourceAlpha" result="shadowOffsetOuter1"></feOffset>
            <feGaussianBlur stdDeviation="2" in="shadowOffsetOuter1" result="shadowBlurOuter1"></feGaussianBlur>
            <feColorMatrix values="0 0 0 0 0   0 0 0 0 0   0 0 0 0 0  0 0 0 0.5 0" type="matrix" in="shadowBlurOuter1" result="shadowMatrixOuter1"></feColorMatrix>
            <feMerge>
                <feMergeNode in="shadowMatrixOuter1"></feMergeNode>
                <feMergeNode in="SourceGraphic"></feMergeNode>
            </feMerge>
        </filter>
    </defs>
    <g id="Page-1" stroke="none" stroke-width="1" fill="none" fill-rule="evenodd">
        <g id="Group-20" transform="translate(3.000000, 2.000000)">
            <g id="Group-6" filter="url(#filter-1)">
                <path d="M49,2.02124431 C56.6971705,2.93836816 63.3858853,5.98704331 69.9695084,9 C71.5501299,5.85572546 73.1413668,2.66837866 78,0 C65.926132,3.35753473 60.0993814,1.29426871 49,2.02124431 Z" id="Shape" fill="url(#linearGradient-2)" style="mix-blend-mode: darken;"></path>
                <path d="M0,19.0025412 C69.6890389,-15.3494932 86.4883992,35.8649627 126,27.0245015 C74.4611362,46.8500483 52.4269686,-0.280599372 0,19.0025412 Z" id="Shape" fill="url(#linearGradient-3)" style="mix-blend-mode: darken;"></path>
                <path d="M84,17.9535 C47.5848927,-1.22908424 27.2992768,-8.23283455 0,19 C34.4468679,2.51274926 57.7550224,5.4702494 84,17.9535 Z" id="Shape" fill="url(#linearGradient-4)" style="mix-blend-mode: darken;"></path>
                <path d="M130.841328,4 C136.643973,8.45962444 143.318033,11.0194658 152,9.26248377 C100.57142,57.5144354 76.0730348,24.5993184 43,16.6669835 C68.9986807,22.9745596 152.839221,47.3998887 130.841328,4 Z" id="Shape" fill="url(#linearGradient-5)" style="mix-blend-mode: darken;"></path>
                <path d="M1,18.9148612 C68.960461,-0.979024341 81.7033811,74.9104572 155,7 C93.5855962,70.8024341 51.9289657,15.8410183 1,18.9148612 Z" id="Shape" fill="url(#linearGradient-6)" style="mix-blend-mode: darken;"></path>
                <path d="M172,1 C166.424239,3.73181771 160.849547,6.26005479 155.276995,8.28626839 C93.9414804,71.7085663 51.9585221,15.6929798 1,20.2346401 C43.2611046,28.7509192 50.7785403,47.3364461 90.7288919,46.9953686 C119.831542,46.7480874 147.789514,12.7948868 172,1 Z" id="Shape" fill="url(#linearGradient-7)" style="mix-blend-mode: darken;"></path>
                <path d="M1,21 C2.50983161,22.9384693 4.05366365,24.6829846 5.62618356,26.2539056 C26.4153217,47.0359258 52.1100845,37.6414754 67.6185308,46.9062659 C71.7028325,49.3462298 75.0805627,53.0806497 77.475468,59 C75.2941279,49.8948734 79.80556,47.886752 80,47.7110146 C64.0909861,45.3974959 34.9653674,37.7025548 1,21 Z" id="Shape" fill="url(#linearGradient-8)" style="mix-blend-mode: darken;"></path>
                <path d="M61,44 C38.3992271,38.7970379 19.6708973,30.5922834 1,21 C21.736342,24.3814914 38.372638,36.5155889 61,44 Z" id="Shape" fill="url(#linearGradient-9)" style="mix-blend-mode: darken;"></path>
                <path d="M6,27 C26.2577649,48.5472805 46.6250886,42.9848946 66,46 C49.6789108,38.1047972 26.0928946,45.6394068 6,27 Z" id="Shape" fill="url(#linearGradient-10)" style="mix-blend-mode: darken;"></path>
            </g>
            <g id="Group-19" filter="url(#filter-11)" transform="translate(7.000000, 69.000000)" fill-rule="nonzero" fill="#FFFFFF">
                <path d="M23.9688244,8.11791359 C24.7743622,8.11791359 25.423318,8.05932027 25.9147866,7.94488019 C26.3999195,7.83684875 26.6705441,7.77917095 26.7275653,7.77917095 C26.7845865,7.77917095 26.9556502,7.83776427 27.2479971,7.94488019 C27.5403439,8.06023579 27.8109685,8.11791359 28.0607757,8.11791359 C28.2608025,8.11791359 28.5739667,8.28362283 29.0020784,8.62236546 C29.4365258,8.9611081 29.7216319,9.25682127 29.8573967,9.50858944 C29.9714391,9.70359534 29.9424759,9.93430654 29.7786531,10.1869902 C29.4157085,10.663061 28.7024907,10.9725069 27.6480507,11.1171592 C26.8922933,11.2251906 26.3510442,11.3405462 26.0152526,11.4559018 C25.6803661,11.5639333 25.3092756,11.6509077 24.8893098,11.7085855 L24.2186316,11.7873203 L24.8033254,11.1968095 C25.1101539,10.886448 25.2884583,10.6777093 25.3237572,10.5623537 C25.3672019,10.4543223 25.3237572,10.3398822 25.1816567,10.2309352 C25.0386511,10.0871985 24.4621032,10.0725502 23.4492977,10.1879058 C22.4301565,10.2959372 21.8237404,10.3966445 21.6318595,10.4836189 C21.4390734,10.5623537 21.0471657,10.6493282 20.463377,10.7353871 C19.1808521,10.9010963 18.3897958,11.1034264 18.0820623,11.3258979 C17.8331601,11.5209038 17.6765781,11.7296425 17.6186517,11.9392967 C17.5688713,12.1480354 17.5118501,12.6103734 17.4548289,13.3089156 C17.4267708,14.1814068 17.5118501,14.7938901 17.7046361,15.1481966 C17.8974221,15.500672 18.345446,15.7753282 19.0441822,15.9694186 C19.8207569,16.2294265 20.5837552,16.6185227 21.3386075,17.1595954 C21.86628,17.5770728 22.250947,18.0027899 22.4862727,18.4211829 C22.7215983,18.8459844 22.8646039,19.2424049 22.9071436,19.60312 C22.9424424,19.9711593 22.9279608,20.5049078 22.8419765,21.2116898 C22.7568972,21.975234 22.5785927,22.6380709 22.3007274,23.2157645 C22.0228621,23.7925425 21.7024572,24.4920002 21.3386075,25.3058981 C20.8109349,26.5748097 20.013543,27.6853362 18.9581978,28.6438863 C18.4024672,29.0979846 17.9815963,29.3653166 17.703731,29.4522911 C17.4258657,29.5310258 16.9841775,29.4806722 16.3705206,29.2792577 C15.3088398,28.9112184 14.3892595,28.0533755 13.6126848,26.7057291 C13.3348195,26.2516309 13.1420335,25.9769747 13.0497134,25.8835916 C12.9501525,25.7828843 12.8361101,25.7325307 12.6940096,25.7325307 C12.5012236,25.7609118 12.1808186,26.1573323 11.7318896,26.9144678 C11.2902015,27.6789276 10.4774228,28.6594502 9.30803527,29.870684 C8.55951862,30.6635249 8.03275116,31.1899492 7.7259227,31.4572813 C7.41909423,31.7236978 7.09868928,31.9251123 6.76380276,32.0697646 C5.92930173,32.4671005 5.36633033,32.6675995 5.07398344,32.6822479 C4.78163655,32.6968962 4.35442996,32.5595681 3.79869934,32.2794188 C2.35144648,31.4939021 2.10254433,31.0965661 3.0501827,31.0965661 C3.37782843,31.0965661 3.86205625,30.8585308 4.49019476,30.38246 C5.11652308,29.8990651 5.62337836,29.4229944 6.01528611,28.9414305 C7.12674734,27.6505464 7.98930643,26.4823421 8.60205826,25.4377331 L9.59947705,23.6643696 C10.1054272,22.7918784 10.5335389,22.0127703 10.8964835,21.3426092 L12.1943951,18.8917605 C12.6931045,17.9615915 13.1637558,17.0240984 13.6126848,16.0792811 C14.0552781,15.1353793 14.3892595,14.4432457 14.6173444,13.9882319 C14.9449901,13.3107467 15.0020113,12.9216504 14.7811672,12.8062948 C14.5883812,12.748617 13.1275519,13.4261023 10.3977741,14.832342 C9.1433073,15.5098272 7.87435889,15.8485699 6.59907479,15.8485699 C4.98166337,15.8485699 3.65569374,15.567505 2.62931179,15.0053754 C2.23740404,14.8039608 1.7024907,14.3782437 1.01914116,13.7154068 C0.342127317,13.0516543 0,12.6415011 0,12.4684677 C0,11.9640158 0.334886527,11.8486602 0.997418793,12.129725 C1.33230532,12.2734618 2.35144648,12.3457879 4.04760149,12.3457879 C5.55187557,12.3164912 6.61355637,12.2231081 7.24078978,12.0638075 C7.8680232,11.9127466 9.46461734,11.3863223 12.0233314,10.48545 C13.5837216,9.89402363 15.5867051,9.36119062 18.0386175,8.87779572 C20.49053,8.39897843 22.4654554,8.14629473 23.9688244,8.11791359 L23.9688244,8.11791359 Z M18.3744092,17.784896 C17.675673,17.0277605 17.2620428,16.6020434 17.1190372,16.5233086 C16.9271563,16.4372496 16.7198887,16.5233086 16.5135262,16.7750768 C16.3062586,17.0277605 16.1578224,17.3518548 16.0790788,17.7482752 C15.9939995,18.138287 15.6446314,18.9668332 15.0318796,20.2357448 C13.7276323,22.996955 13.128457,24.503902 13.2361637,24.7556702 C13.4072274,24.9790572 13.8914552,25.1667389 14.6969931,25.3031515 C15.3957293,25.4185071 16.2438068,24.9570847 17.2484664,23.9124757 C17.8612182,23.2917527 18.3671684,22.5712379 18.7735577,21.7564246 C19.1727062,20.9416112 19.3872146,20.2641259 19.4152727,19.7303774 L19.4578123,18.8871829 L18.3744092,17.784896 L18.3744092,17.784896 Z M45.1544702,8.03093913 C45.1825282,7.88720239 45.4178539,7.80022793 45.8667829,7.75719846 C46.3084711,7.71416899 46.6225403,7.68578785 46.8071804,7.67113952 C46.9854849,7.65649119 47.3420938,7.73614148 47.8697664,7.90185072 C48.2897322,8.04558746 48.6391003,8.24791752 48.9314472,8.51433403 C49.223794,8.78075053 49.3731353,9.03343423 49.3731353,9.25682127 C49.3731353,9.39414936 49.1803493,9.68986253 48.7884416,10.1439608 C48.3965338,10.5916504 48.1186685,10.9294775 47.9548456,11.1601887 C47.783782,11.3835757 47.5991418,11.5273125 47.3918742,11.6005541 C47.1782709,11.6719647 47.0207837,11.6509077 46.9067413,11.5346366 C46.7999397,11.4266052 46.7709765,11.0448331 46.8207569,10.3966445 C46.8786832,9.74754033 46.8714425,9.35844406 46.8062754,9.2137918 C46.7356777,9.07005505 46.43609,8.87504916 45.9084174,8.62328098 C45.601589,8.50792538 45.3879857,8.40630259 45.281184,8.30559532 C45.1689518,8.20397253 45.1264121,8.11791359 45.1544702,8.03093913 L45.1544702,8.03093913 Z M34.7132513,6.71899805 C34.6064497,6.80505699 34.4924072,7.01471122 34.3774597,7.35345386 C34.2136368,7.97326133 33.7013509,8.86040083 32.8378868,10.0130413 C32.3038785,10.7482044 31.3480943,11.9740865 29.9515269,13.6897722 C29.3948912,14.3672575 29.1034494,14.901006 29.0744863,15.2974264 C29.0464282,15.6874382 29.2455499,16.0829432 29.6582749,16.4802791 C29.9080822,16.7320473 30.1144447,16.8693754 30.2646911,16.8766995 C30.4212732,16.8913479 30.6203949,16.8043734 30.8702021,16.6020434 C31.0412658,16.4940119 31.2059938,16.3933047 31.3689115,16.3063302 C32.4025343,15.5491946 32.9446884,15.3541887 33.0017096,15.7158194 C33.0587309,15.8604716 32.8378868,16.3063302 32.3319366,17.0707899 C31.8612852,17.7702477 31.5906607,18.3323774 31.520063,18.7370375 C31.4485602,19.1481063 31.5408803,19.5729078 31.7906875,20.0270061 C31.9834736,20.3657487 32.0830344,20.6037841 32.0830344,20.7475208 C32.0830344,20.9425267 31.9554155,21.3600041 31.684791,21.9880513 C31.4205022,22.6225071 31.1933224,23.0546328 31.0005364,23.2780199 C30.6077235,23.8401495 30.1379773,24.6403146 29.5822467,25.6638666 C29.0192753,26.6956584 28.7133519,27.3658195 28.6626664,27.6752655 C28.6056451,27.9279492 28.6346083,28.2383107 28.7414099,28.5981103 C28.8264892,28.8791751 29.0120345,29.1895366 29.3043813,29.5282793 C29.5967282,29.8670219 29.8456304,30.0400553 30.0384164,30.0400553 C30.1805169,30.0400553 30.6222051,29.6866643 31.3707217,28.9807979 C32.1264792,28.2813402 32.7256545,27.697238 33.1664376,27.2504639 C33.7013509,26.543682 34.4788307,25.390126 35.5115484,23.7824717 C36.5379303,22.1821417 37.0511213,21.2803538 37.0511213,21.0789393 C37.0511213,20.8839334 37.1515873,20.6101927 37.3434682,20.2577173 C37.543495,19.9052418 37.6792598,19.7459412 37.7643391,19.7743224 C37.8783815,19.8027035 37.9145855,21.3673283 37.891958,24.4608725 C37.8639,27.5608254 37.891958,29.2618628 37.9707016,29.5722243 C38.0557809,29.9109669 38.2775301,30.2497095 38.6404747,30.5884522 C39.0034193,30.9271948 39.3672689,31.1798785 39.7238778,31.3455877 C40.1447488,31.5186211 40.4153733,31.5405936 40.5429922,31.4105897 C40.6642754,31.2888255 40.6859978,31.1222007 40.6000134,30.9271948 C40.5221749,30.7257803 40.4506721,30.2213284 40.3936509,29.406515 C40.3357246,28.7006486 40.357447,28.2822557 40.4579129,28.1595759 C40.5574738,28.0304875 40.8787838,28.0661928 41.4417552,28.2676073 C42.5812745,28.5779688 43.8574637,28.3326093 45.2829942,27.5470926 C45.5898227,27.4024403 45.8604472,27.3374384 46.0948678,27.3374384 C46.3301934,27.3374384 46.8289028,27.1213755 47.6000469,26.7029826 C48.3621401,26.2772655 48.8400322,26.0685268 49.0174315,26.0685268 C49.195736,26.0685268 49.388522,26.010849 49.581308,25.8954934 C49.9442526,25.7297841 50.8927961,25.5063971 52.4251282,25.2253323 C53.009822,25.1383578 53.3664309,25.0230022 53.5085314,24.8865896 C53.7583386,24.6641181 53.7863967,24.4251672 53.5945158,24.1880474 C53.3953941,23.950012 53.0243036,23.7485975 52.4613322,23.5746485 C51.7987999,23.3796427 50.7226375,23.4235876 49.2464215,23.7046525 C48.6056116,23.8410651 48.2272803,23.8630376 48.0996614,23.7696544 C47.9783782,23.6689472 47.9285978,23.3796427 47.9566558,22.8971633 C48.0064363,22.3927114 48.0706983,22.0759413 48.1422011,21.9532615 C48.2137039,21.8232576 48.5694077,21.5064874 49.2038819,21.0020356 C49.8166337,20.4399059 50.1442794,20.0498941 50.1877242,19.8411554 C50.2302638,19.6250925 50.0166605,19.2790257 49.5387684,18.802955 C49.1830646,18.4642123 48.975797,18.20512 48.9332573,18.0247624 C48.8907177,17.8370807 49.0120009,17.693344 49.2889611,17.5779884 C49.4319667,17.4919294 49.5387684,17.3692497 49.6247528,17.1962163 C49.7098321,17.030507 49.6745332,16.8721219 49.517046,16.7137369 C49.3677047,16.5617604 49.1115618,16.4399962 48.7477121,16.3530217 C48.4979049,16.2669628 48.2770608,16.1369589 48.077034,15.9566013 C47.885153,15.7689196 47.7702055,15.588562 47.7421474,15.4017958 C47.7140894,15.2214382 47.7702055,15.0694618 47.9132111,14.9623459 C48.0480708,14.9046681 48.4689417,14.76734 49.1676779,14.5366288 C49.388522,14.478951 49.5659214,14.4285974 49.708927,14.3709196 C50.3723643,14.1191514 50.5144648,13.8225227 50.1225571,13.4837801 C49.929771,13.3391278 49.6736281,13.2237722 49.3532232,13.1230649 C49.0319131,13.0214421 48.6472462,13.058063 48.205558,13.2310964 C46.8660119,13.7355482 45.6251215,14.0166131 44.4846971,14.0742909 C44.0140458,14.1035875 43.6936408,14.1328842 43.529818,14.1612653 C43.3017331,14.211619 43.2238946,14.2976779 43.273675,14.413949 C43.3306963,14.5219805 43.5442996,14.6446602 43.9226308,14.7664245 C44.300057,14.8964284 44.6286078,14.9614304 44.9064731,14.9614304 C45.2123965,14.9614304 45.4124233,15.0264323 45.5119842,15.1491121 C45.6124501,15.279116 45.7255875,15.3432025 45.8685931,15.3432025 C46.1184003,15.3432025 46.2387785,15.5665895 46.2387785,16.0133636 C46.188998,16.5251396 45.6975294,17.0295915 44.7779491,17.5349589 C43.887332,18.0174383 43.4166806,18.0320866 43.3596594,17.5779884 C43.3596594,17.4919294 43.3524186,17.4269275 43.337937,17.3692497 C43.3234555,17.3115719 43.2528578,17.318896 43.1315745,17.3912221 C43.0030505,17.4626328 42.8754316,17.5496072 42.732426,17.6649628 C42.5966612,17.7729943 42.4971003,17.874617 42.4400791,17.960676 C42.3043143,18.1556819 42.2400523,18.3708292 42.2545339,18.6161888 C42.2690155,18.8542241 42.3540947,19.0556387 42.5251584,19.2295876 C42.6889813,19.3952968 42.9740874,19.5106524 43.3804767,19.5683302 C43.7859609,19.6186839 44.0357682,19.7129825 44.1362341,19.8420709 C44.2285542,19.9647507 44.4566391,19.914397 44.8195837,19.69101 C45.097449,19.5536819 45.290235,19.4749471 45.3834602,19.4602988 C45.483021,19.4456505 45.5753411,19.4813558 45.6540847,19.5683302 C45.7961852,19.7056583 45.8251483,19.8997487 45.739164,20.1597566 C45.6251215,20.6065306 45.0549093,21.1256308 44.0285274,21.7170572 C43.5008548,21.9761495 43.1804499,22.0484756 43.0664074,21.9550925 C42.952365,21.8543853 42.952365,21.7033244 43.0664074,21.5083185 C43.1523918,21.3709904 43.1949314,21.2702831 43.1949314,21.2126053 C43.1949314,21.0175994 42.9451242,21.1842242 42.439174,21.7170572 C41.7476786,22.3945424 41.6191546,22.9575876 42.0608427,23.4116859 C42.3957293,23.7220474 43.0799839,23.707399 44.1136067,23.3677409 C44.5263317,23.2240041 44.7906205,23.1590022 44.9046629,23.1590022 C45.0187054,23.1590022 45.1110254,23.2020316 45.1970098,23.3027389 C45.2820891,23.4034462 45.3182931,23.4977448 45.3038115,23.5984521 C45.2893299,23.7000749 45.1825282,23.9307861 44.9906473,24.2979099 C44.7345044,24.8316584 44.4493983,25.1996977 44.135329,25.3937881 C43.814019,25.588794 43.2727699,25.7618274 42.5242533,25.8982399 C41.7684959,26.0428922 41.2697865,26.056625 41.0199792,25.9421849 C40.7421139,25.8341535 40.5565687,25.6391476 40.4570078,25.3718156 C40.3565419,25.1053991 40.2787034,24.5212969 40.2289229,23.6204246 C40.1148805,22.553843 40.0080788,21.8040316 39.9157588,21.3783145 C39.8152928,20.9608371 39.7664175,20.1020788 39.7664175,18.804786 L39.7664175,16.8647978 L40.1872884,16.100338 C40.4370956,15.5665895 40.9213235,14.6519844 41.6481177,13.3537761 C42.3667661,12.083949 42.8591398,11.1327231 43.1089471,10.4845344 C43.3587543,9.83634583 43.4872783,9.2449195 43.4872783,8.71117096 C43.4872783,8.34404719 43.4519795,8.00438903 43.3804767,7.69494305 C43.3089739,7.38549708 43.2238946,7.14013755 43.1089471,6.95977998 C42.9949046,6.77209825 42.8890081,6.69336347 42.7740605,6.72174461 C42.6600181,6.77942241 42.5885153,6.80780355 42.5459757,6.80780355 C42.503436,6.80780355 42.4817137,6.93048332 42.4817137,7.16851869 C42.4817137,7.40655405 42.411116,7.69402753 42.2753511,8.03277017 C42.1332506,8.42919061 41.8409038,9.01329278 41.3992156,9.78507667 C40.9502866,10.5632692 40.614495,11.0906091 40.394556,11.3716739 L38.891187,13.3107467 C38.1707284,14.2985934 37.5860347,15.0200237 37.1371057,15.4667978 C36.4962958,16.1159019 36.1758909,16.721061 36.1758909,17.2831907 C36.1758909,17.427843 36.3035098,17.6439058 36.553317,17.939619 C36.8031243,18.2353322 36.9597063,18.4944245 37.0094868,18.7178116 C37.1235292,19.3660002 36.5677986,20.2961691 35.3413898,21.5074029 C34.6716168,22.1272104 34.3150079,22.4375719 34.2579867,22.4375719 C34.2299286,22.4375719 34.2082062,22.4229236 34.1946297,22.3936269 C34.1801482,22.3652458 34.1729074,22.3213008 34.1729074,22.2709472 C34.1729074,22.2132694 34.1801482,22.1336191 34.1946297,22.0329118 C34.2091113,21.9395287 34.2444102,21.8022006 34.3014314,21.6364914 C34.4371962,20.9590061 34.2733733,20.3099019 33.7954812,19.6900945 C33.5465791,19.379733 33.4252958,19.1709943 33.4252958,19.0556387 C33.4252958,18.9476072 33.6452348,18.5511868 34.0878281,17.8737015 C34.6725219,17.0012104 35.0074084,16.3814029 35.0924877,16.0133636 C35.1784721,15.653564 35.049948,15.3139058 34.7150615,15.0044598 C34.4661594,14.7526917 34.187389,14.5650099 33.8805605,14.4569785 C33.4605947,14.3416229 33.2325098,14.2262673 33.1899702,14.1182359 C33.1465254,14.0028803 33.2542322,13.7785777 33.5031343,13.4407506 C34.0878281,12.7055875 34.5077939,12.1141612 34.7576012,11.6673871 C35.0074084,11.2132889 35.2563105,10.5568606 35.5133586,9.67704524 C35.7342027,8.91990967 35.8337635,8.33672302 35.819282,7.92565426 C35.8120412,7.52190965 35.6771815,7.17584285 35.4273742,6.89477802 C35.2282525,6.69336347 35.1060642,6.58533204 35.0490429,6.55511986 C34.9911166,6.52399216 34.8834099,6.58258548 34.7132513,6.71899805 L34.7132513,6.71899805 Z M72.519225,20.8702006 C73.2179612,20.4746957 73.766451,20.135953 74.1728403,19.8393243 C74.5710838,19.5436112 74.9711374,19.3925503 75.3630452,19.3925503 C75.7477121,19.3925503 76.168583,19.4786092 76.6102712,19.645234 C77.0592002,19.8182674 77.3796051,20.0270061 77.5723911,20.2796898 C77.8502564,20.6184324 78.0493782,21.2025346 78.1561798,22.0319963 C78.2702223,22.8678666 78.2702223,23.5746485 78.1561798,24.1660749 C77.9063726,25.1530061 77.7425497,26.3788883 77.6574704,27.8418902 C77.6294124,28.520291 77.5651503,28.9954463 77.4719252,29.2765111 C77.3723643,29.5575759 77.3225839,29.759906 77.3225839,29.8670219 C77.1868191,30.9409276 76.9587342,31.7566565 76.6528108,32.3187862 C76.488988,32.599851 76.3894271,32.8809159 76.3604639,33.1619807 C76.3097784,33.839466 75.911535,34.351242 75.1702591,34.704633 C74.4362241,35.0580239 73.6877074,35.0946448 72.9391908,34.8126644 C72.5183199,34.6680121 72.0051289,34.3082125 71.3923771,33.7314345 C70.7796252,33.1546565 70.3089739,32.5852027 69.9740874,32.023073 C69.668164,31.5186211 69.4536556,31.222908 69.3251316,31.1359335 C69.1975127,31.0498746 68.8771077,30.9921968 68.3412893,30.9702243 C67.7855586,30.9702243 67.4008917,30.8621928 67.1728068,30.6525386 C66.9519627,30.4364757 66.7166371,29.9384325 66.4668298,29.1529158 C65.9889377,27.7118863 65.9889377,25.9952851 66.4668298,23.9985346 C66.6596158,23.1553401 66.8017163,22.6426485 66.8804599,22.4778548 C67.1076397,22.1098155 67.3429654,22.19679 67.5927726,22.729623 C67.7285374,23.0683656 67.8923603,23.327458 68.0706647,23.5078155 C68.25621,23.6954973 68.2915088,23.8749393 68.1991888,24.062621 C68.0987228,24.2429786 68.1349268,24.769403 68.2987496,25.6409786 C68.5548926,26.8805936 68.7902182,27.544346 69.0119674,27.630405 C69.2617747,27.7100553 69.5251584,27.4720199 69.8030237,26.9089747 C69.9460293,26.5986132 70.181355,26.2607861 70.5162415,25.8927468 C70.7660487,25.6400631 70.9506889,25.4899177 71.0574905,25.4313244 C71.171533,25.3736466 71.3498374,25.3443499 71.5996447,25.3443499 C72.1055949,25.3443499 72.7536455,25.6693598 73.5664242,26.3175484 C73.9800543,26.7139688 74.243438,26.8650297 74.3583856,26.7789708 C74.472428,26.700236 74.5792297,26.2314894 74.6932721,25.3873794 C74.6932721,25.3873794 74.6932721,25.3443499 74.6932721,25.2656152 C74.9141162,23.5426053 74.9711374,22.5831397 74.857095,22.3890493 C74.7493882,22.1949589 74.2361972,22.3029904 73.3166169,22.727792 C73.2885589,22.7854698 73.2740773,22.8138509 73.2740773,22.8138509 C72.3554021,23.2322438 71.6421843,23.5416898 71.1434749,23.7440199 C70.5017599,23.9674069 69.8745265,24.0681142 69.2617747,24.039733 C68.6490228,24.0113519 68.3421944,23.8520513 68.3421944,23.5709865 C68.3421944,23.462955 68.4281787,23.3833047 68.5920016,23.3402753 C68.7630653,23.2972458 69.2409574,23.0299138 70.0392545,22.5401102 C70.8303108,22.0429825 71.2647581,21.7399452 71.3507425,21.6319138 C71.4367269,21.5202202 71.8277295,21.2675365 72.519225,20.8702006 L72.519225,20.8702006 Z M71.3072978,27.7128018 C71.2004961,27.5177959 71.0149509,27.5177959 70.7660487,27.7128018 C70.6022259,27.8281574 70.4881834,28.2099295 70.4311622,28.8581182 C70.374141,29.4998981 70.4166806,29.9686447 70.5587811,30.2497095 C70.8656096,30.6964836 71.4638799,30.9711398 72.3554021,31.0498746 C72.7473098,31.1075524 73.0315108,31.0645229 73.2107204,30.9271948 C73.3890248,30.7834581 73.5528477,30.5170416 73.6886125,30.1197056 C73.8017499,29.7306093 73.8089906,29.471517 73.7094298,29.3415131 C73.6171097,29.2115091 73.3310985,29.1108019 72.8541115,29.0247429 C72.2404546,28.9093873 71.8630284,28.8233284 71.7272636,28.7510022 C71.584258,28.6786761 71.5064195,28.5349394 71.4774563,28.3042282 C71.4222453,27.9938667 71.3652241,27.7988608 71.3072978,27.7128018 L71.3072978,27.7128018 Z M70.0953706,10.6914421 C70.2383762,10.4680551 70.4592203,10.554114 70.7651436,10.9441258 C70.9651705,11.1968095 71.2502766,11.7589392 71.621367,12.616782 C71.9987932,13.4746249 72.2123965,14.0578115 72.2694177,14.3690885 C72.519225,15.3276386 72.5762462,15.8760355 72.4404814,16.0124481 C72.3834602,16.1278037 72.1481345,16.2431593 71.7272636,16.3511907 C71.4204351,16.4665463 71.2285542,16.5242241 71.1434749,16.5242241 C71.0574905,16.5242241 70.9506889,16.451898 70.8076833,16.3081612 C70.5868392,16.142452 70.3877175,15.8247663 70.2229895,15.3642595 C70.0591666,14.8955129 69.980423,14.0156976 69.9949046,12.7184048 C70.0102913,11.4266052 70.0455902,10.7491199 70.0953706,10.6914421 L70.0953706,10.6914421 Z M77.6583755,6.46631436 C78.0792464,6.27130846 78.4068922,6.17060119 78.6630351,6.17060119 C79.0766652,6.17060119 79.5753746,6.35828292 80.1455868,6.74005503 C80.715799,7.12274265 81,7.4395128 81,7.69128097 C81,8.2250295 80.651537,8.93181144 79.9528008,9.80338709 C78.6983339,11.4119569 78.1145453,12.3119136 78.1996246,12.5069195 C78.2566458,12.6726288 78.3562066,12.7879844 78.4919714,12.8465777 C78.6630351,12.9042555 78.8205223,13.0113714 78.9761993,13.1853203 C79.1264456,13.3510296 79.2042841,13.524063 79.2042841,13.6897722 C79.2042841,13.8335089 79.1545037,13.9424559 79.0549428,14.0285148 C78.9617177,14.1154893 78.7408736,14.2372535 78.4059871,14.4112025 C76.6247528,15.1967192 75.5694077,15.5931396 75.2345211,15.5931396 C74.792833,15.5931396 74.4787637,15.5144048 74.2932185,15.3633439 C74.1158191,15.2049589 73.9510911,14.8588921 73.8153263,14.324228 L73.6877074,13.6897722 L74.9421742,11.749784 C75.9187758,10.2794578 76.2672388,9.52232225 75.9893735,9.46464445 C75.875331,9.43626331 75.6119473,9.49302559 75.1910764,9.63767785 C74.8561899,9.77409043 74.4570413,9.80338709 73.9791492,9.71641263 C73.1165901,9.52140673 72.6893835,9.32731635 72.6893835,9.12590181 C72.6893835,8.98857372 72.9391908,8.81554032 73.4379002,8.62144994 C74.1655995,8.34130063 75.5703128,7.61987036 77.6583755,6.46631436 L77.6583755,6.46631436 Z M60.7447957,4.14546953 C60.6877745,4.23152847 60.6307532,4.54188997 60.573732,5.0756385 C60.4388723,6.42328489 60.2180282,7.32507272 59.9111998,7.77825543 C59.6613925,8.2250295 59.4903289,8.6507466 59.4043445,9.04716704 C59.3826221,9.29985074 59.3400825,9.4802083 59.2830612,9.5955639 C59.197982,9.73197648 59.1907412,10.1000158 59.262244,10.6914421 C59.3328417,11.2828684 59.4333076,11.6939372 59.5754081,11.9173242 C59.7962522,12.4217761 60.123898,12.7678429 60.5583453,12.9555246 C60.986457,13.1358822 61.4281452,13.1432064 61.8698334,12.970173 C62.3187624,12.7751671 62.6111092,12.7321376 62.7468741,12.8484087 C62.8898797,12.9628488 62.9043612,13.2439137 62.7894137,13.6916032 C62.654554,14.2830296 62.4834903,14.7298036 62.2907043,15.0246013 C62.0906775,15.3203145 61.7630317,15.6233518 61.2860447,15.9337133 C60.0885991,16.71923 59.0477356,17.2667113 58.1571184,17.5770728 C57.401361,17.8004599 56.3894606,17.8004599 55.1069357,17.5770728 C54.3511783,17.4113636 53.9375482,17.5340434 53.8524689,17.9597605 C53.8244108,18.096173 54.0099561,18.3699137 54.3937179,18.7599255 C54.7856257,19.1563459 55.1929201,19.4520591 55.6056451,19.647065 C56.1333177,19.8988332 56.732493,20.0434854 57.401361,20.0718666 C58.235862,20.1002477 59.1835004,19.8988332 60.2451812,19.4813558 C60.4949884,19.3660002 60.6588113,19.358676 60.7438906,19.4602988 C60.8289699,19.5610061 60.7864302,19.7340395 60.6153666,19.9867232 C60.4515437,20.267788 60.3655593,20.4692025 60.3655593,20.577234 C60.3655593,20.6925896 60.2442761,20.9452733 59.9881332,21.3416937 C59.7672891,21.6740277 59.6604874,21.9907978 59.6604874,22.286511 C59.6604874,22.5822242 59.7672891,22.9575876 59.9881332,23.4116859 C60.3510777,24.0021967 60.729409,24.2548804 61.1204117,24.1688214 C61.2561765,24.1395248 61.4634441,23.9454344 61.7476451,23.5773951 C62.0255104,23.2102713 62.1893332,22.8999098 62.2463545,22.6472261 C62.3033757,22.3661613 62.6744662,21.3929629 63.3722973,19.734955 C63.6221045,19.2012065 63.8357078,18.6683734 63.9995307,18.1273007 C64.1352955,17.65123 64.2846368,17.297839 64.4339781,17.0735365 C64.5905602,16.8501495 64.7335658,16.7640905 64.8756663,16.8217683 C65.0177668,16.8730375 65.0530656,17.2117801 65.0041903,17.8306721 C64.919111,18.6747821 65.0965103,19.4392418 65.5454393,20.1158116 C65.8513627,20.6202634 66.2649928,20.9315405 66.7999061,21.0459805 C67.1067346,21.0963342 67.3275787,21.0102752 67.4633435,20.7722399 C67.605444,20.5268803 67.6841876,20.2101102 67.6986692,19.8210139 C67.70591,19.4245935 67.7412088,18.8917605 67.79823,18.2133597 C67.8552512,17.5358744 67.8262881,17.1321298 67.7131507,16.9874775 C67.6063491,16.8721219 67.5276055,16.8217683 67.4850659,16.8217683 C67.4425262,16.8217683 67.3140022,16.8647978 67.0931581,16.9444481 C66.8650732,17.116566 66.7012504,17.1678351 66.5872079,17.116566 C66.4523482,17.0588882 66.2812846,16.8721219 66.0884985,16.5471121 C65.8966176,16.2230178 65.8251148,15.9996308 65.882136,15.8915993 C65.9101941,15.7762437 66.1817237,15.4942634 66.6940096,15.0474893 C67.2072006,14.5933911 67.6986692,14.211619 68.1765613,13.902173 C68.4824847,13.6504048 68.7105695,13.4050453 68.8680567,13.1670099 C69.017398,12.9289746 69.0246388,12.7412928 68.888874,12.6195286 C68.7458684,12.4895246 68.5675639,12.4245227 68.3394791,12.4245227 C68.1195401,12.4245227 67.669706,12.5325541 66.9854514,12.7412928 C66.3011967,12.9573557 65.8522678,13.1313046 65.6241829,13.2677172 C65.1535316,13.5561062 64.8756663,13.3546916 64.7896819,12.6772064 C64.7326607,12.3961415 64.7679595,12.1727545 64.8964835,12.0061297 C65.0250075,11.8330963 65.5590158,11.3716739 66.5066542,10.6081297 C67.1981496,10.0167034 67.6036338,9.60563463 67.7113406,9.36119062 C67.825383,9.12315525 67.7258221,8.84941458 67.4189937,8.53905308 C67.1981496,8.31566605 66.9202843,8.23601575 66.5844926,8.30834188 C66.2496061,8.38066801 65.8214944,8.53905308 65.294727,8.79082126 C63.9551809,9.41154425 63.0636586,9.72099023 62.6219704,9.72099023 C62.4518119,9.72099023 62.3585867,9.64225545 62.3513459,9.46830653 C62.3368643,9.3025973 62.3947907,8.97850299 62.5368912,8.49510809 C62.9007408,7.17584285 63.0718045,6.35370532 63.0573229,6.02961101 C63.0428413,5.7055167 62.829238,5.33106876 62.4092722,4.90535167 C61.5503335,4.05941059 60.9946029,3.8067269 60.7447957,4.14546953 Z" id="Shape"></path>
                <path d="M86.0355331,31.6790701 C86.2632658,31.3709972 86.4268358,31.2124034 86.5407022,31.2124034 C86.6473389,31.2124034 86.8036793,31.3846691 86.9961677,31.7219087 C87.473322,32.4182629 87.7362991,33.6961277 87.7860027,35.5472998 C87.8140174,36.4733416 87.8212471,37.0475604 87.8067878,37.2699563 C87.7923286,37.4923521 87.7498546,37.6646178 87.6649067,37.7794616 C87.273604,38.1677429 86.6753537,38.044696 85.8710594,37.3993834 C85.5366899,37.1478209 85.3089571,36.8898781 85.1815352,36.6383156 C85.0604392,36.386753 84.9682617,36.0631853 84.9113285,35.6767269 C84.8543953,35.1672216 84.9257877,34.6075861 85.1173724,33.9896173 L85.4951196,32.6042005 C85.5800675,32.2961275 85.7580967,31.9880545 86.0355331,31.6790701 L86.0355331,31.6790701 Z M90.6263363,0.601071266 C90.7899062,0.486227501 91.0528833,0.428805619 91.4161713,0.428805619 C91.7785556,0.428805619 92.0704511,0.486227501 92.2909543,0.601071266 C92.8467306,0.910055682 93.124167,1.31200886 93.124167,1.82151413 C93.124167,2.04391 93.003071,2.64638403 92.7536494,3.62984771 C92.4762131,4.86396245 92.3126431,5.61773859 92.2701691,5.89755634 C92.2349248,6.17737408 92.249384,6.3788064 92.3352356,6.4863585 C92.4201836,6.63036893 92.6696052,6.67320748 93.0898263,6.6157856 C93.3383442,6.55836371 93.5019142,6.54469184 93.5877658,6.57294705 C93.6727137,6.60120226 93.7938097,6.69417102 93.9646093,6.86734813 C94.1851124,7.08974399 94.2989788,7.27568152 94.2989788,7.41240028 C94.2989788,7.55641072 94.1570977,7.7213847 93.8796614,7.91461389 C92.2638432,9.17789531 91.459549,10.161359 91.459549,10.8650049 C91.459549,11.1448226 91.6448078,11.4893539 91.9999624,11.9131821 C92.2773987,12.2221665 92.4409687,12.4518541 92.4843464,12.6095364 C92.5268203,12.759927 92.4635612,13.0178698 92.291858,13.3842761 C92.1291917,13.7497709 91.8653109,14.0159168 91.5020229,14.1808908 C91.1965719,14.3249012 90.975165,14.4889637 90.8332839,14.690396 C90.6986324,14.8845367 90.7121879,15.0495107 90.8766616,15.1926096 C91.0465574,15.3366201 91.3248975,15.2937815 91.7089706,15.064094 C93.323885,14.3677397 94.0712461,14.1954741 93.9646093,14.5618804 C93.8796614,14.7833648 93.4594402,15.1926096 92.7120791,15.7814118 C92.3496949,16.062141 92.0930437,16.2909171 91.9367033,16.4777661 C91.7875926,16.6573234 91.616793,16.9444328 91.417075,17.3390943 C91.1116239,17.9561517 90.9046763,18.5012038 90.7908099,18.9751622 C90.7121879,19.4272456 90.6344696,19.7070634 90.5630772,19.8228186 C90.4925884,19.9303707 90.3642628,19.9877926 90.1654485,19.9877926 C89.8374049,19.9877926 89.4180875,19.7936519 88.920148,19.3999019 C88.6707264,19.177506 88.4574529,19.0626622 88.2938829,19.0626622 C88.1520018,19.0626622 87.8601062,19.1629227 87.4190999,19.3570633 C86.970864,19.551204 86.7078869,19.7079748 86.6220353,19.82373 C86.5153985,19.9595373 86.181029,20.1108394 85.6261563,20.2612301 C85.0712836,20.4189124 84.7088994,20.461751 84.5371961,20.4116207 C84.0672714,20.2676103 83.6624131,19.9595373 83.3343695,19.485579 C83.1066368,19.1765945 83,18.7245111 83,18.1366204 C83,17.5195631 83.0704887,17.060188 83.2277328,16.7512036 C83.3768435,16.4431306 83.6479539,16.2207348 84.0383529,16.0767243 C84.707092,15.8543285 85.0414615,15.8251618 85.0414615,15.9901358 C85.0414615,16.0767243 84.9420543,16.2553702 84.7495659,16.5424796 C84.4151964,17.0747713 84.4016409,17.4758131 84.707092,17.7556308 C84.8706619,17.9278965 85.133639,17.9570631 85.496927,17.8422194 C85.9740814,17.7346673 86.450332,17.5405266 86.934716,17.2743807 C87.4254258,17.0091463 87.7390102,16.7794588 87.8745654,16.5789379 C88.0733798,16.2991202 88.2161646,15.8898754 88.3155717,15.3439117 C88.408653,14.7906565 88.4014234,14.4607085 88.2947866,14.3540679 C88.1809202,14.2392241 87.9604171,14.2392241 87.6260476,14.3540679 C87.3477075,14.439745 87.170582,14.46162 87.0847304,14.439745 C86.9997825,14.4114897 86.9564048,14.3112293 86.9564048,14.1453439 C86.9564048,13.9730782 86.7783756,13.7643542 86.4159914,13.5137032 C85.860215,13.1764635 85.6044675,12.8610989 85.6478452,12.5666978 C85.6903191,12.2713853 85.9894443,12.1219061 86.544317,12.1219061 C86.9853232,12.1219061 87.4624776,12.0644842 87.9604171,11.9569321 C88.4583566,11.8420884 88.7647113,11.7199529 88.8785777,11.576854 C89.1270956,11.2970362 88.9355109,11.1028956 88.2947866,10.9880518 C88.1809202,10.9588851 88.045365,10.9306299 87.8754691,10.9023747 C86.849768,10.7374007 86.0029998,10.4001611 85.3342608,9.89794749 C84.9718765,9.56070786 85.0568244,9.36656721 85.5827786,9.30914533 C85.7463486,9.30914533 85.9605258,9.30914533 86.2090437,9.30914533 C86.8488643,9.30914533 87.376626,9.25081198 87.7887138,9.13687968 C88.1520018,9.02932758 88.5360749,8.79964005 88.9418368,8.46878063 C89.3394654,8.131541 89.6033463,7.80888471 89.7316719,7.4999003 C89.8599975,7.19182734 90.1166487,6.25120222 90.4998181,4.67893638 C90.8911208,3.10758201 91.0827055,2.22437877 91.0827055,2.03114958 C91.0827055,1.77958705 90.9625132,1.57177452 90.7130916,1.39950887 C90.3488999,1.11786821 90.3199815,0.852633799 90.6263363,0.601071266 L90.6263363,0.601071266 Z M86.5831761,18.9751622 C86.4982282,18.6953445 86.3554434,18.6306309 86.1638587,18.7673497 C86.0499923,18.8539382 86.0147479,18.9614903 86.0572219,19.1045893 C86.0996959,19.2403966 86.1855475,19.3342768 86.3066435,19.3771154 C86.4349691,19.4199539 86.519917,19.4126623 86.562391,19.3561519 C86.5976353,19.2978185 86.604865,19.1765945 86.5831761,18.9751622 L86.5831761,18.9751622 Z M100.090801,0.134404539 C99.9769348,0.306670186 99.9272312,0.443388954 99.9272312,0.558232719 C99.9272312,0.673076484 99.7636613,1.35484741 99.4428473,2.61812882 C99.122937,3.88141024 98.959367,4.64247805 98.9449078,4.90771246 C98.9304486,5.18023853 98.8671895,5.48922295 98.759649,5.85562925 C98.4749831,6.78167104 98.3403316,7.49898884 98.3403316,8.00120245 C98.3403316,8.45328584 97.9987324,8.84885881 97.3155341,9.19977031 C96.6395655,9.55159327 95.9491376,9.68102037 95.2514801,9.60172349 C94.8104738,9.54430161 94.5899707,9.58714015 94.5899707,9.72294746 C94.5899707,9.92437978 94.8393923,10.1249006 95.3373317,10.3336246 C95.8352712,10.5487288 96.3124256,10.6489893 96.7525282,10.6489893 C97.0878014,10.6489893 97.3155341,10.7064111 97.442956,10.8212549 C97.5712816,10.928807 97.6002001,11.115656 97.5504965,11.3663071 C97.4926596,11.7609686 97.3580081,12.0116196 97.1519642,12.1200832 C96.9450166,12.234927 96.5040103,12.3069322 95.8352712,12.3351874 C94.8393923,12.4135728 94.3342232,12.6004218 94.3342232,12.8802395 C94.3342232,12.9877916 94.4968894,13.189224 94.8177034,13.4681302 C95.1376137,13.747948 95.4511981,13.956672 95.7566492,14.099771 C96.1127076,14.2647449 96.3404403,14.394172 96.4190623,14.4725575 C96.4759955,14.559146 96.262722,14.8462554 95.778338,15.3411774 C95.2876282,15.8297191 94.7960146,16.2307608 94.2980751,16.5397452 C93.045545,17.4083651 92.5837535,18.3061517 92.9181231,19.231282 C93.003071,19.56123 93.0103006,19.8273759 92.9398119,20.0060217 C92.8684195,20.185579 92.6551459,20.3797197 92.291858,20.5729489 C91.9367033,20.7944333 91.5517265,21.0314125 91.1468683,21.2902667 C90.7483359,21.5418292 90.263952,21.821647 89.7090793,22.1306314 C88.3788308,22.8844075 88.0932612,23.7238608 88.8767703,24.6499025 C89.4596577,25.2952151 90.0714636,25.4538089 90.7121879,25.1165693 C91.295979,24.8075849 91.7369853,24.8650067 92.0424364,25.2806318 C92.1852212,25.4246422 92.5683906,25.70446 93.2091149,26.1209965 C93.6293361,26.350684 93.9067724,26.5366215 94.0414239,26.6952153 C94.1842087,26.8465174 94.2194531,26.9823247 94.1480607,27.0898768 C94.077572,27.2047206 93.877854,27.326856 93.5425807,27.469955 C92.3759022,28.0295905 91.5788376,28.3458666 91.1450609,28.4178718 C90.7176101,28.4889655 90.3046186,28.3969082 89.9142195,28.1453457 C89.6367832,27.9439134 89.4090504,27.8728196 89.2310213,27.9083665 C89.0457625,27.9512051 88.8758666,28.1170905 88.7041633,28.3969082 C88.5975266,28.6475593 88.5975266,28.9273771 88.7041633,29.2363615 C88.8460445,29.5745126 89.1740881,29.9609709 89.6864868,30.3920908 C90.1988855,30.8295909 90.6254326,31.0884451 90.9598021,31.1741222 C91.3221863,31.253419 91.7776519,31.5906587 92.3334282,32.1794608 C93.3365368,33.1629245 94.2537937,33.8082371 95.0870065,34.1172215 C95.336428,34.2247736 95.5849459,34.3542007 95.8343675,34.490008 C96.5600398,34.9420914 97.5992964,35.2082373 98.9647892,35.2939144 C99.6055135,35.3522477 100.132371,35.344956 100.545363,35.2729508 C100.96468,35.2018571 101.783434,34.9858414 103.007949,34.6203466 C103.619755,34.4553726 104.039976,34.3405288 104.26048,34.2821955 C104.423146,34.2539403 104.644553,34.0889663 104.90753,33.7799819 C105.170507,33.4719089 105.327751,33.1911797 105.384684,32.9405286 C105.527469,32.4027681 105.079233,31.8996431 104.054436,31.4265961 C103.441726,31.1185232 103.008853,30.8669607 102.759431,30.6655283 C102.51001,30.4713877 102.168411,30.2918304 101.73373,30.1204762 C101.307183,29.9555022 101.064991,29.7969084 101.008058,29.6611011 C100.951125,29.4888355 101.023421,29.3384448 101.215006,29.1944344 C101.414724,29.0577156 101.635227,29.0002937 101.883745,29.0294604 C102.553388,29.1370125 103.193208,29.3092782 103.798688,29.531674 C104.105043,29.6756845 104.481886,29.7258147 104.930122,29.7039397 C105.371129,29.6756845 105.691039,29.575424 105.883527,29.4022469 C106.331763,29.1005542 106.346222,28.6913093 105.926001,28.1890957 C105.314195,27.5146165 104.609308,27.1627935 103.798688,27.1345383 C103.328763,27.1345383 102.645565,27.2347987 101.755419,27.4289394 C100.866177,27.62308 100.10526,27.8664394 99.4645361,28.1471686 C98.6033087,28.4552416 98.1053692,28.5199551 97.9625844,28.3549812 C97.770096,28.1325853 98.1686283,27.2776373 99.1726406,25.79196 C100.980043,23.2371419 101.798797,21.6940428 101.635227,21.1626625 C101.578294,20.9976885 101.386709,20.7607093 101.05234,20.4663082 C100.71797,20.1719072 100.411615,19.9850582 100.134179,19.8993811 C99.7428762,19.791829 99.1238407,19.8282873 98.2761688,20.0069332 C97.4294005,20.1864905 96.7245134,20.4444332 96.1696407,20.7816729 C95.7855676,21.0113604 95.4936721,21.1189125 95.2939541,21.1189125 C95.1593026,21.1189125 94.8601774,21.2410479 94.3974823,21.4771157 C93.9420168,21.7140949 93.6004176,21.9291991 93.3799145,22.1306314 C93.1811002,22.2946939 92.9389082,22.4177408 92.6470126,22.4888346 C92.3551171,22.5544596 92.1129251,22.6465169 91.9213404,22.7613606 C91.5300377,22.9837565 91.2589272,23.0193034 91.1034906,22.8625325 C90.9534762,22.7112304 91.017639,22.4532877 91.2950753,22.0877928 C91.5725116,21.7788084 91.9565847,21.4771157 92.4626575,21.1827146 C92.960597,20.8883135 93.4232921,20.6877927 93.8362837,20.5729489 C94.2845196,20.5146155 94.8538515,20.3788082 95.5433757,20.1491207 L97.173653,19.6897456 C97.5649557,19.5749019 98.0412064,19.374381 98.611442,19.0799799 C99.1807739,18.7855789 99.4934546,18.6351882 99.5512915,18.6351882 C99.6082246,18.6351882 100.020312,18.4556309 100.803822,18.0901361 C101.579197,17.7310214 102.021107,17.422037 102.13407,17.1640943 C102.383492,16.5470369 102.341018,16.1305004 102.012974,15.9081045 C101.81416,15.7932608 101.436413,15.7786774 100.882444,15.865266 C100.441437,15.9226879 100.135083,15.9153962 99.964283,15.8443024 C99.800713,15.7722972 99.7437799,15.6291982 99.800713,15.3995107 C99.885661,15.1771148 100.006757,14.9829742 100.177557,14.8107085 C100.341126,14.6457346 100.71797,14.3795887 101.301761,14.0131824 C102.774794,13.0297187 103.138082,12.1191717 102.383492,11.278807 C102.191003,11.0573226 102.028337,10.9206039 101.906337,10.8777653 C101.778915,10.8422184 101.478887,10.8203434 101.008962,10.8203434 C100.539941,10.8203434 100.226356,10.7765934 100.070016,10.6909163 C99.9209053,10.6052392 99.8847573,10.4393538 99.9633793,10.1887027 C100.134179,9.45680159 100.938473,8.71760879 102.383492,7.95654098 C102.803713,7.76240033 103.06669,7.52542113 103.180556,7.24651485 C103.287193,6.9666971 103.215801,6.73700957 102.967283,6.57203559 C102.632913,6.32047306 102.106959,6.42802516 101.387613,6.90927522 C100.99631,7.15992629 100.746888,7.25380651 100.633022,7.1818013 C100.526385,7.11070754 100.497467,6.82359812 100.548074,6.32138452 C100.605007,5.84013445 100.7252,5.19391041 100.903229,4.38362385 C101.088488,3.57242582 101.244828,2.98362366 101.386709,2.61812882 C101.721079,1.89351935 101.785241,1.27646198 101.592753,0.766045246 C101.449968,0.457972289 101.215006,0.235576427 100.88154,0.0988576589 C100.546267,-0.0451527766 100.28329,-0.0305694414 100.090801,0.134404539 L100.090801,0.134404539 Z M97.7565404,22.3420897 C97.9201104,22.6219075 97.6996072,23.2672201 97.0878014,24.2798504 L96.2970626,25.4565433 C96.0982483,25.7937829 95.9626931,25.9587569 95.8777452,25.9587569 C95.7918936,25.9587569 95.6147681,25.8439131 95.3373317,25.6215173 C95.1737618,25.4565433 94.8818662,25.2833662 94.4616451,25.1193036 C94.0414239,24.947038 93.7215136,24.8677411 93.5010105,24.8677411 C93.366359,24.8677411 93.1811002,24.8249026 92.960597,24.738314 L92.5837535,24.6161786 L92.960597,24.322689 C93.2091149,24.1212566 93.5434844,23.9562827 93.9637056,23.8131837 C94.3766971,23.6764649 94.7607702,23.4321941 95.109599,23.1022461 C95.457524,22.764095 95.7918936,22.5708658 96.1054779,22.5271158 C96.4253883,22.4915689 96.7245134,22.3986002 97.0019498,22.2545897 C97.3652377,22.1196939 97.6146593,22.1479491 97.7565404,22.3420897 L97.7565404,22.3420897 Z M95.6283236,29.1534188 C95.74219,29.2390959 95.7918936,29.3548511 95.7918936,29.4906584 C95.7918936,29.7130543 96.0548707,30.0284189 96.5681731,30.4385752 C97.0805718,30.84782 97.5071188,31.0775076 97.8414884,31.1349294 C98.0619915,31.1923513 98.3755759,31.1704763 98.7732045,31.0702159 C99.1789665,30.969044 99.4211584,30.8687836 99.5061064,30.7539398 C99.5630396,30.6965179 99.6624467,30.6536794 99.8196908,30.6254242 C99.9688015,30.6035492 100.104357,30.5971689 100.217319,30.6035492 C100.323956,30.6181325 100.380889,30.6682627 100.380889,30.7539398 C100.380889,30.8405284 100.52277,31.0984711 100.801111,31.5286795 C101.078547,31.9661795 101.170724,32.2678723 101.093006,32.4328463 C100.97914,32.6333671 100.801111,32.7627942 100.545363,32.8347995 C100.295941,32.9058932 99.8549351,32.9423515 99.2142108,32.9423515 C97.8767327,32.9423515 96.8799501,32.712664 96.211211,32.2678723 C95.9907079,32.1247733 95.6066348,31.9661795 95.0662213,31.7875337 C94.5249042,31.6015962 94.1263718,31.4430024 93.877854,31.298992 C93.6284324,31.1631846 93.350996,31.0474294 93.0446412,30.9617523 C92.3759022,30.825945 92.4048206,30.5597992 93.1232633,30.1651376 L94.3333195,29.4040698 C94.9740438,29.0167 95.4078205,28.9301114 95.6283236,29.1534188 L95.6283236,29.1534188 Z M130.08194,15.4013336 C129.975303,15.064094 129.946385,14.8344065 129.996992,14.712271 C130.053925,14.5837554 130.224725,14.5327137 130.502161,14.5618804 C131.220604,14.6767242 131.818854,15.1069325 132.295105,15.8680004 C132.877992,16.7931307 132.544526,17.8987298 131.291996,19.1911779 C130.516621,19.9732092 129.861437,20.3687822 129.334579,20.3687822 C129.135765,20.3687822 128.794166,20.5045895 128.288997,20.7844072 C128.040479,20.899251 127.748583,20.9995114 127.41331,21.0788083 C127.07894,21.1644854 126.808734,21.2146156 126.60269,21.229199 C126.396646,21.2437823 126.27555,21.2219073 126.247535,21.1644854 C126.247535,21.0788083 126.524971,20.7698239 127.079844,20.2384436 C128.082953,19.3415685 128.901706,18.322558 129.54243,17.1668286 C129.8768,16.5780265 130.062059,16.20524 130.104533,16.0320629 C130.146103,15.8680004 130.138873,15.6519847 130.08194,15.4013336 L130.08194,15.4013336 Z M118.532636,11.9122707 C119.727329,11.6898748 120.32558,11.8694321 120.32558,12.4573228 C120.32558,13.189224 119.684855,13.7351876 118.410636,14.1015939 C117.848534,14.2374012 117.52049,14.3887033 117.407528,14.5390939 C117.293661,14.6967762 117.243054,15.0631825 117.243054,15.6519847 C117.243054,16.326464 117.271069,16.7138338 117.343365,16.8150057 C117.413854,16.9079744 117.69129,16.9581047 118.175674,16.9581047 C118.666384,16.9581047 119.044131,17.0437818 119.321567,17.2087557 C119.606233,17.3527662 119.88367,17.5678704 120.161106,17.8622714 C120.438542,18.1566725 120.602112,18.4000319 120.659045,18.6014643 C120.772912,19.1328445 120.546083,20.0433915 119.990306,21.3294594 L119.321567,23.0594075 C119.157997,23.5041993 118.993524,23.8560222 118.823628,24.1075848 C118.660058,24.3591473 118.439555,24.7246421 118.175674,25.2049807 C117.912697,25.6789391 117.556638,26.1957361 117.115632,26.7553716 L116.403515,27.5592779 L115.742006,27.5592779 C115.435651,27.5592779 115.222378,27.5383144 115.115741,27.4945644 C115.001875,27.4517258 114.852764,27.3295904 114.653046,27.1363612 C114.432543,26.8847987 114.219269,26.5402674 114.005092,26.110059 C113.798144,25.6725589 113.734885,25.342611 113.820737,25.1202151 C113.9337,24.7255536 113.87767,24.5314129 113.656263,24.5314129 C113.542397,24.5314129 113.151094,25.0482099 112.489585,26.0890954 C111.344595,27.7971686 110.468005,28.8307625 109.857102,29.1971688 C109.472126,29.4195646 109.13866,29.6638355 108.86032,29.9144866 C108.276529,30.4458668 107.679182,30.4312835 107.066472,29.871648 C106.817051,29.6200855 106.689629,29.434148 106.689629,29.3265959 C106.689629,29.2117521 107.159554,28.5946947 108.08404,27.4745123 C109.01666,26.3552413 109.650155,25.5221683 109.984524,24.9698245 C110.318894,24.4247723 110.888226,23.5916993 111.69252,22.4724283 C112.610681,21.0943031 113.514382,19.5147456 114.403624,17.7209954 C115.01543,16.5433911 115.207919,15.940917 114.987415,15.9126618 C114.959401,15.9126618 114.888008,15.9272452 114.780468,15.9482087 C114.53195,15.9764639 113.977077,16.2854483 113.10862,16.8742505 C112.831184,17.0756828 112.347704,17.2616203 111.650046,17.4484693 C110.959618,17.6280266 110.347812,17.7428704 109.820051,17.8002923 C109.123297,17.8285475 108.646143,17.7565423 108.397625,17.5924797 C108.012648,17.3409172 107.657493,16.9107088 107.336679,16.3073233 C107.016769,15.7039378 106.895673,15.2372711 106.981525,14.9000315 C107.095391,14.6202137 107.230946,14.4689116 107.401746,14.4552397 C107.565316,14.4479481 107.77136,14.5637033 108.028011,14.8143544 C108.277432,15.0431305 108.455462,15.1798492 108.568424,15.2372711 C108.675061,15.2956044 108.931712,15.2801096 109.315785,15.1944326 C110.261961,15.1087555 111.080714,14.8435211 111.778372,14.3978179 C112.113645,14.1681303 112.861006,13.8099272 114.027684,13.2995104 C115.251296,12.7972968 116.098968,12.4737291 116.576122,12.3379218 C117.045143,12.1929999 117.699423,12.0562811 118.532636,11.9122707 L118.532636,11.9122707 Z M117.407528,19.1474279 C117.073158,19.0617508 116.838196,19.0754226 116.695411,19.1902664 C116.588774,19.2978185 116.38273,19.5995113 116.090835,20.0953447 C115.798036,20.5829749 115.571206,21.0350583 115.407637,21.4588865 C115.236837,21.9109699 115.016334,22.3420897 114.738897,22.7650065 C114.290662,23.3538086 114.21204,23.7265951 114.489476,23.8997722 C115.016334,24.17959 115.435651,24.1075848 115.742006,23.6910483 C116.26796,23.0448242 116.766803,22.2190429 117.243054,21.207324 C117.712979,20.1956051 117.905467,19.5785477 117.826845,19.3561519 C117.799734,19.2403966 117.656949,19.1765945 117.407528,19.1474279 L117.407528,19.1474279 Z M113.280323,6.9885721 L114.824749,6.91018668 C115.179904,6.88193147 115.642599,6.95302522 116.197472,7.1179992 C117.172565,7.36956174 117.877452,7.79977013 118.325688,8.40224416 C118.766695,9.0047182 118.766695,9.52880681 118.325688,9.97359854 C117.990415,10.2607079 117.705749,10.4329736 117.470787,10.5049788 C117.235824,10.5696924 116.780359,10.6198226 116.11162,10.6489893 C115.421192,10.6489893 114.986512,10.6061507 114.823845,10.5268538 C114.653046,10.4411767 114.638587,10.2470361 114.780468,9.93805166 C114.887104,9.68010892 114.873549,9.4786766 114.716305,9.32828595 C114.567194,9.17060364 114.168662,8.8971661 113.527938,8.50250459 C112.802265,8.0285462 112.361259,7.72047324 112.197689,7.57737426 C112.02689,7.4406555 111.998875,7.31213985 112.112741,7.2036763 C112.220282,7.08974399 112.611584,7.01682732 113.280323,6.9885721 L113.280323,6.9885721 Z M123.165009,4.82932703 C123.214713,5.34612397 123.094521,5.99872822 122.788166,6.78167104 C121.699206,9.61721828 121.157889,11.3818018 121.157889,12.0790676 C121.157889,12.3871405 121.328688,12.7389635 121.663058,13.133625 L122.245945,13.7652657 L123.164106,13.7224272 C124.74468,13.6367501 125.576989,13.6650053 125.661936,13.8090157 C125.71887,13.944823 125.790262,14.1034168 125.868884,14.2674793 C126.068602,14.6621408 126.054143,15.0285471 125.83364,15.3594065 C125.66284,15.5890941 125.093508,16.0776358 124.118414,16.8377921 C123.15055,17.5915683 122.553204,18.014485 122.325471,18.0937819 C122.02002,18.2086257 121.792287,18.366308 121.642273,18.5814122 C121.485932,18.7892247 121.449784,19.133756 121.535636,19.6077144 C121.620584,20.088053 121.592569,20.8062822 121.449784,21.7742511 C121.315133,22.7431315 121.214822,23.5543295 121.157889,24.2151369 C121.100955,24.8759442 121.037696,25.4428714 120.951845,25.9168298 C120.702423,27.0935227 120.788275,27.919304 121.201266,28.4005541 C121.507621,28.708627 121.898924,28.8881844 122.368849,28.9456062 C122.845099,29.0030281 123.215617,28.9027677 123.493053,28.6512052 C123.663853,28.5363614 123.835556,28.2702155 124.019911,27.8545905 C124.197036,27.4307623 124.496162,26.9139653 124.916383,26.296908 C125.578796,25.3143558 125.984558,24.5605796 126.126439,24.0219077 C126.148128,23.8569337 126.254765,23.7420899 126.43912,23.6919597 C126.617149,23.6345378 126.773489,23.6773764 126.91537,23.8140951 C127.050926,23.9289389 127.434999,24.1294598 128.061264,24.4238608 C128.687529,24.7182619 129.114076,24.8978192 129.356268,24.9479495 C129.59123,25.0053713 130.153333,25.2068037 131.043478,25.5367516 C132.907814,26.3552413 134.060937,26.6924809 134.501944,26.5484705 C134.95018,26.4126632 135.092061,26.0972986 134.94295,25.6014652 C134.78661,25.1138349 134.394403,24.6398765 133.754583,24.1941733 C133.256643,23.8569337 132.765933,23.6199545 132.296009,23.4759441 C130.545539,22.9737305 129.307468,22.6793294 128.580892,22.5936523 C127.776598,22.4569335 127.293118,22.2846679 127.121414,22.0914387 C127.064481,21.9765949 126.836748,21.9474282 126.438216,22.0048501 C126.033358,22.062272 125.655611,22.0194335 125.306782,21.8827147 C124.957953,21.7387042 124.73022,21.7241209 124.623584,21.8398761 C124.480799,21.9474282 124.423866,22.040397 124.452784,22.1124022 C124.481702,22.183496 124.610028,22.2983397 124.830531,22.4706054 C125.300456,22.7504231 125.500174,23.0302409 125.414322,23.3109701 C125.329374,23.5907878 124.980546,24.0209962 124.36874,24.61709 C123.813867,25.1193036 123.465038,25.3134443 123.308698,25.2058922 C123.158684,25.0910484 123.080965,24.5888348 123.080965,23.6919597 C123.080965,22.8233398 123.123439,22.1342772 123.202061,21.6320636 C123.287913,21.1225583 123.273454,20.5920895 123.166817,20.0315426 C123.052951,19.6943029 122.996017,19.4791987 122.996017,19.3789383 C122.996017,19.2777664 123.053854,19.177506 123.166817,19.0635737 C123.302372,18.8985997 123.458712,18.7828445 123.622282,18.7254226 C123.786756,18.6680007 124.141911,18.4665684 124.682324,18.1156569 C125.229967,17.7638339 125.543552,17.6061516 125.622174,17.6353183 C125.707122,17.6353183 126.035165,17.4703443 126.604497,17.147688 C127.173829,16.8323234 127.629294,16.5443025 127.956434,16.2854483 C128.682107,15.7549795 128.889054,15.2518544 128.582699,14.7715158 C128.476063,14.5782866 128.204952,14.3558908 127.772079,14.1043282 C127.337399,13.8527657 127.017489,13.7233386 126.789756,13.7233386 C126.597267,13.7233386 126.440927,13.6950834 126.312602,13.6376615 C126.184276,13.5802396 126.127343,13.5155261 126.127343,13.4289375 C126.127343,13.2849271 126.945193,12.7252916 128.582699,11.7491196 C129.223424,11.3262029 129.621052,11.0463851 129.771067,10.9023747 C129.927407,10.7656559 129.963555,10.6079736 129.877704,10.4429996 C129.707808,10.1349267 129.308372,9.99820792 128.667647,10.0419579 C128.027827,10.0847965 127.400658,10.2853173 126.789756,10.6517236 C126.071313,11.103807 125.331182,11.45563 124.583821,11.7071925 C124.27837,11.7855779 124.056963,11.7791977 123.914178,11.6853175 C123.772297,11.5850571 123.736149,11.4127914 123.786756,11.1612289 C124.071422,9.9262027 124.348858,9.07307759 124.626295,8.59182752 C124.903731,8.00302536 125.08899,7.40784299 125.188397,6.8044575 C125.281478,6.201072 125.259789,5.73440527 125.124234,5.39716565 C125.067301,5.19664479 124.825109,4.87307703 124.391332,4.40732177 C123.963882,3.94794671 123.680119,3.71096751 123.538238,3.71096751 C123.402683,3.71096751 123.288817,3.76838939 123.202965,3.88323316 C123.122536,3.98896234 123.108076,4.30523842 123.165009,4.82932703 Z" id="Shape"></path>
                <path d="M134.598218,16.3100691 C134.732514,16.2049348 135.438018,16.1630593 136.706672,16.1915703 C137.918921,16.2191903 138.701422,16.2681936 139.061337,16.3528356 C139.420356,16.4374777 139.730133,16.6548741 140.012156,17.0121526 C140.337153,17.397942 140.491146,17.6581049 140.463392,17.7908593 C140.435637,17.9316324 140.259261,18.0715145 139.927997,18.2256521 C139.596732,18.3735529 139.321872,18.4501762 139.103416,18.4501762 C137.918921,18.4501762 137.051366,19.3268895 136.494484,21.0812071 C136.142627,22.2599588 136.057573,22.9326403 136.248274,23.0947966 C136.361083,23.1785477 136.650268,23.0386656 137.115829,22.6876239 C137.587657,22.3303454 138.180352,21.796655 138.892123,21.0812071 C139.611057,20.3657591 140.005888,20.0138265 140.069455,20.0138265 C140.13929,20.0138265 140.160777,20.2730984 140.133022,20.7934242 C140.020213,21.6140064 139.654032,22.4916107 139.018362,23.4244551 C138.850044,23.6979825 138.687097,24.0980275 138.525046,24.6174623 C138.250186,25.3329102 137.813275,25.9156038 137.22058,26.3851444 C136.62878,26.8484482 136.043248,27.0444613 135.464878,26.9607102 C135.162263,26.9330902 134.92232,26.8270649 134.738781,26.652435 C134.562405,26.4769142 134.378867,26.1543835 134.181899,25.6839519 C133.991198,25.2206482 133.949118,24.8063477 134.061927,24.4561969 C134.252628,23.740749 135.134508,22.2171923 136.705777,19.8881999 C137.199092,19.1513687 137.446198,18.7370682 137.446198,18.6533171 C137.446198,18.4074097 136.994962,18.1338823 136.085327,17.8327348 C135.479202,17.6153384 135.049454,17.3551755 134.802348,17.0531371 C134.583893,16.8357407 134.463921,16.6887309 134.450492,16.6192353 C134.437062,16.5559765 134.486304,16.4508422 134.598218,16.3100691 L134.598218,16.3100691 Z M136.664593,9.82025235 C136.748752,9.59572822 137.010182,9.59572822 137.447093,9.82025235 C137.665549,9.95300671 138.194677,10.1285276 139.019257,10.3530517 C140.232402,10.6541992 141.043552,11.0337519 141.458976,11.5032924 C141.980942,12.0788583 141.952292,12.486031 141.374817,12.7381752 C140.767797,12.9840826 139.999621,12.885185 139.062232,12.4503923 C138.483862,12.1759739 137.912654,11.7278166 137.349505,11.1103752 C136.777402,10.4938248 136.551784,10.0661597 136.664593,9.82025235 L136.664593,9.82025235 Z M144.017771,6.44526252 C143.799316,6.50139355 143.686507,6.59940012 143.686507,6.73304544 C143.686507,6.87381851 143.785886,6.99231736 143.975692,7.1054704 C144.193252,7.21060472 144.405441,7.36474233 144.596141,7.55451868 C144.730438,7.72202082 144.807435,7.84942936 144.82176,7.94743592 C144.836084,8.04633346 144.800272,8.31273313 144.716113,8.74663494 C144.610466,9.32220079 144.497657,9.76412132 144.391116,10.0661597 C144.278307,10.3681982 144.243389,10.6203423 144.285469,10.8234832 C144.327549,11.0266241 144.250552,11.286787 144.059851,11.5879345 C143.918392,11.8338419 143.854825,12.0512382 143.86915,12.2401236 C143.883475,12.4361368 143.989121,12.7381752 144.178927,13.144457 C144.320386,13.4179844 144.334711,13.6211253 144.221902,13.7414061 C144.116255,13.8670327 143.727691,14.0078057 143.065162,14.1761988 C142.430387,14.3650842 141.950501,14.4212153 141.619237,14.3374642 C141.012217,14.1476878 140.596793,14.1761988 140.378337,14.4221062 C140.075723,14.7241447 140.117802,15.0814232 140.504576,15.4885959 C140.892245,15.9590274 141.399886,16.2254271 142.03466,16.2877949 C142.661377,16.3581815 143.352556,16.2459194 144.10014,15.9447719 C144.677615,15.6712445 144.99545,15.5866025 145.044692,15.6917368 C145.157501,15.7754879 145.128851,16.0427785 144.967695,16.4980636 C144.798481,16.9471118 144.580026,17.4237801 144.305166,17.9155949 C142.845811,20.3782327 142.006906,21.8305119 141.781288,22.2724324 C141.675641,22.5744708 141.548507,22.798995 141.414211,22.9522416 C141.273647,23.1001424 141.027437,23.4084176 140.666627,23.8717214 C140.010365,24.7769457 139.453482,25.3525115 139.016571,25.6046557 C138.769466,25.738301 138.615472,25.9556974 138.558173,26.2568449 C138.481176,26.6711454 138.543848,27.0988104 138.769466,27.5549864 C138.987921,28.0040347 139.235027,28.2356866 139.509887,28.2356866 C139.6791,28.2561789 139.953961,28.2080666 140.335362,28.0672935 C140.588735,27.9835424 140.779436,27.8712804 140.912837,27.7171428 C141.054296,27.5692419 141.244102,27.3028423 141.491207,26.9179437 C141.935281,26.2862469 142.337275,25.6402945 142.690027,24.9881053 C143.21826,23.9715099 143.557582,23.682836 143.7259,24.1247565 C143.831547,24.5043092 143.951518,24.7707089 144.078652,24.9239556 C144.197729,25.0718564 144.41708,25.2616327 144.713427,25.4790291 C145.213905,25.7810675 145.530845,25.9280774 145.664246,25.9280774 C145.967756,25.9280774 146.433317,25.4157703 147.052871,24.3911562 C147.667054,23.3603053 148.216774,22.1886813 148.682335,20.8762843 L149.132676,19.7251526 L150.042311,19.7251526 C150.677085,19.7251526 151.28321,19.571015 151.86158,19.2689765 C152.354896,18.9954491 152.65751,18.8760593 152.770319,18.8974425 C152.93237,18.8974425 152.946695,19.0943467 152.812399,19.4792452 C152.671835,19.7527726 152.608268,19.9844245 152.608268,20.1742008 C152.608268,20.4201082 152.502622,20.6161214 152.297596,20.7488757 C152.086303,20.8896488 151.726388,20.9947831 151.198155,21.0794252 C150.070065,21.2406905 149.329644,21.5284734 148.96973,21.941883 C148.751274,22.1592793 148.659952,22.4123145 148.702032,22.6992064 C148.744111,22.9941171 148.709194,23.3095201 148.596385,23.6676895 C148.490739,24.025859 148.40658,24.5452938 148.34928,25.2331217 C148.321525,25.8639276 148.363605,26.2915927 148.476414,26.5232446 C148.58206,26.7620242 148.955405,27.1896892 149.590179,27.8213861 C150.253604,28.5858373 150.930458,29.1685309 151.635067,29.5685759 C152.339675,29.9686209 153.29139,30.3267904 154.503639,30.6564489 C155.222573,30.853353 155.680971,30.9584873 155.885997,30.9861073 C156.09729,31.0137273 156.266504,31.0003628 156.407963,30.9442318 C156.901278,30.6421934 157.204788,30.137905 157.317597,29.4215661 C157.366839,29.0143933 157.346247,28.2570699 157.25403,27.1620692 C157.154651,26.0670685 157.042737,25.3026173 156.901278,24.8606968 L156.654173,23.998239 L156.901278,23.7523316 C157.042737,23.6115585 157.288948,23.5839385 157.6417,23.6676895 C158.24872,23.8360826 158.649818,23.8432104 158.840519,23.6890728 C159.038383,23.5420629 159.051812,23.2195322 158.882599,22.7205897 C158.664143,22.0960206 158.347204,21.6478633 157.930885,21.3877004 C157.522623,21.1284284 156.860094,20.9172688 155.949564,20.7488757 C155.569058,20.7212557 155.287035,20.6161214 155.124984,20.4192173 L154.877878,20.1733099 L155.251223,19.3108521 C155.906589,17.886193 156.195774,16.9952241 156.118778,16.6379457 C156.034619,16.3359072 155.829593,16.0695076 155.498328,15.8378557 C155.167063,15.6062038 154.822369,15.4877049 154.462455,15.4877049 C154.158945,15.4877049 153.637874,15.7336123 152.897453,16.2316639 C151.353939,17.2135115 150.373575,17.7748219 149.964419,17.9155949 C149.329644,18.1615023 148.737844,18.1053713 148.188124,17.7472018 C147.82821,17.5012944 147.539025,17.4104156 147.320569,17.4594189 C147.151355,17.4870389 146.989304,17.4451634 146.820091,17.3400291 C146.65804,17.227767 146.601635,17.1368882 146.65804,17.0522462 C147.017954,16.3082872 147.109276,15.8039989 146.947225,15.5304714 C146.728769,15.1161709 146.601635,14.856899 146.572985,14.7517647 C146.545231,14.6395026 146.58731,14.5201128 146.700119,14.400723 C146.805766,14.2750964 147.129868,14.0710645 147.666159,13.7832816 C148.208716,13.4954987 148.539981,13.3484888 148.68144,13.3484888 C148.794249,13.3484888 148.9563,13.2718655 149.174755,13.1025814 C149.400373,12.9422071 149.46394,12.7595584 149.386049,12.5483988 C149.300994,12.344367 149.117456,12.0922228 148.842596,11.7910754 C148.405684,11.3491548 147.898044,11.3072793 147.319674,11.6645578 C147.044814,11.8329509 146.83352,11.8614619 146.699224,11.7491998 C146.586415,11.6645578 146.53001,11.601299 146.53001,11.5665512 C146.53001,11.5246757 146.586415,11.4052859 146.699224,11.2155095 C146.832625,10.9419821 146.966922,10.6479624 147.085998,10.3325594 C147.213132,10.0171565 147.360858,9.72135482 147.544396,9.44782739 C147.720772,9.17429997 147.812094,8.83038601 147.812094,8.41697648 C147.812094,8.17106909 147.784339,7.98931146 147.727935,7.86279389 C147.67153,7.74340407 147.523804,7.55451868 147.276699,7.30861129 C146.86038,6.9228218 146.409144,6.66354987 145.908666,6.52901358 C145.118107,6.33389142 144.483332,6.31250817 144.017771,6.44526252 L144.017771,6.44526252 Z M146.535382,19.2707585 C146.675946,19.4115316 146.733246,19.5656692 146.704596,19.7474268 C146.675946,19.9229476 146.535382,20.2730984 146.288277,20.7934242 C146.260522,20.8771752 146.218443,20.9546895 146.168305,21.0393316 C145.449372,22.3579654 144.913976,22.7081161 144.554062,22.112058 C144.441253,21.9436649 144.652546,21.3894823 145.174512,20.4423825 C145.696477,19.4952826 146.056392,19.0248511 146.247093,19.0248511 C146.273952,19.0257421 146.372436,19.1103841 146.535382,19.2707585 L146.535382,19.2707585 Z M154.466036,23.9581454 C154.768651,24.2878038 154.994269,24.9337562 155.150053,25.8942206 C155.298674,26.8484482 155.291512,27.5220206 155.12946,27.9087011 C154.967409,28.1546084 154.466931,28.1260974 153.642351,27.824059 C153.20544,27.6841769 152.936847,27.6209181 152.85985,27.6209181 C152.774796,27.6209181 152.499936,27.4667805 152.034375,27.1656331 C151.561651,26.8635946 151.202632,26.6043227 150.955527,26.3869263 C150.574125,26.0572679 150.327914,25.7276094 150.236593,25.397951 C150.138109,25.0682925 150.201676,24.8090206 150.420131,24.6192442 C150.609937,24.4294679 151.604626,24.1416849 153.395246,23.7567864 C153.859911,23.6694715 154.219826,23.740749 154.466036,23.9581454 L154.466036,23.9581454 Z M151.16682,5.21127072 C151.44168,4.88161226 151.780107,4.9377433 152.19553,5.37966383 C152.801655,5.95433871 153.16157,6.52990455 153.267216,7.1054704 C153.380025,7.68014528 153.281541,8.44548749 152.978031,9.40684283 C152.646767,10.5018435 152.584095,11.1326494 152.773901,11.3010425 C152.935952,11.4908189 153.450755,11.3776658 154.303985,10.9713841 C155.045301,10.5855946 155.657693,10.431457 156.144742,10.516099 C156.623732,10.5998501 157.032889,10.915253 157.356991,11.4623079 C157.554855,11.7367263 157.660501,11.9184839 157.688256,12.0173814 C157.71601,12.115388 157.660501,12.2276501 157.526205,12.3675322 C157.413396,12.5287975 156.757134,12.9074593 155.566372,13.4972806 C154.367552,14.086211 153.585051,14.4096327 153.232299,14.4657637 C152.929684,14.514767 152.61185,14.514767 152.280585,14.4657637 L151.490922,14.2554951 C151.243816,14.2064918 150.961794,14.0238432 150.644854,13.7226957 C150.327019,13.4206573 150.144376,13.1471299 150.087076,12.9012225 C149.92592,12.3256566 149.98143,11.5335854 150.25629,10.516099 C150.693201,9.03619981 150.953736,8.08197221 151.03879,7.63916072 C151.123845,7.20436794 151.13817,6.74819191 151.08087,6.28488813 C151.054011,5.68081128 151.081765,5.32264182 151.16682,5.21127072 Z" id="Shape"></path>
            </g>
        </g>
    </g>
</svg>